<svg width="143" height="142" viewBox="0 0 143 142" fill="none" xmlns="http://www.w3.org/2000/svg">
<path d="M23.076 92.1742C21.9417 92.1497 20.8061 92.1162 19.6717 92.1046C18.4923 92.093 17.3102 92.1394 16.1321 92.093C15.4824 92.0672 15.3239 92.3237 15.3522 92.9167C15.3922 93.752 15.3483 94.5898 15.3677 95.4264C15.3767 95.8144 15.2426 95.9575 14.8469 95.9484C13.9459 95.9278 13.0449 95.9317 12.1438 95.9497C11.7185 95.9588 11.5212 95.8273 11.5225 95.3645C11.5341 91.9099 11.5328 88.4566 11.5238 85.0021C11.5225 84.5947 11.6643 84.4169 12.0845 84.4246C12.9856 84.4401 13.8866 84.4439 14.7876 84.422C15.2542 84.4104 15.3767 84.6283 15.3664 85.0485C15.3483 85.9057 15.3767 86.7655 15.3509 87.6227C15.3367 88.0816 15.4747 88.2904 15.9671 88.2736C16.8462 88.2453 17.7266 88.2465 18.6057 88.271C19.0569 88.2839 19.2077 88.1099 19.2051 87.6691C19.1896 85.2882 19.1922 82.9061 19.1883 80.5253L19.1716 80.5459C20.4761 80.5292 21.7793 80.5124 23.0825 80.4969C23.067 81.6351 23.0593 82.7734 23.0335 83.9103C23.0245 84.3073 23.2101 84.4323 23.5826 84.431C25.774 84.4233 27.9653 84.4207 30.1566 84.4336C30.5769 84.4362 30.7251 84.2815 30.7148 83.8652C30.6929 83.0067 30.6838 82.1456 30.7174 81.2871C30.738 80.7535 30.5485 80.5769 30.0148 80.5833C27.9524 80.6065 25.89 80.5949 23.8275 80.5885C23.5736 80.5872 23.321 80.5408 23.067 80.515C23.0567 79.4412 23.0567 78.3675 23.0309 77.295C23.0206 76.8516 23.2462 76.751 23.6316 76.7562C24.5339 76.7678 25.4362 76.7472 26.3386 76.7601C26.7227 76.7652 26.8799 76.6157 26.8748 76.229C26.8619 75.306 26.858 74.3818 26.8787 73.4576C26.889 73.0142 26.6698 72.911 26.2831 72.9162C25.3808 72.9291 24.4785 72.9123 23.5762 72.9239C23.2011 72.9291 23.0271 72.7937 23.0335 72.3993C23.049 71.4764 23.0515 70.5521 23.0322 69.6279C23.0232 69.1948 23.2204 69.0762 23.6174 69.0775C25.7869 69.0878 27.9576 69.0917 30.127 69.0762C30.591 69.0723 30.7225 69.2696 30.7135 69.6962C30.6954 70.5547 30.7238 71.4158 30.7006 72.2743C30.689 72.7293 30.8231 72.942 31.318 72.9252C32.1985 72.8969 33.0801 72.9033 33.9605 72.9252C34.4169 72.9368 34.5625 72.746 34.5535 72.3116C34.5342 71.4312 34.5651 70.5495 34.5406 69.6691C34.5277 69.2141 34.7082 69.0646 35.1464 69.0749C36.0268 69.0955 36.9085 69.0633 37.7889 69.0852C38.2388 69.0968 38.3909 68.9254 38.3883 68.482C38.3742 66.3125 38.3754 64.1418 38.3883 61.9724C38.3909 61.5599 38.2517 61.3936 37.8289 61.4039C36.991 61.4246 36.1519 61.3782 35.3166 61.4194C34.7404 61.4465 34.5006 61.2828 34.538 60.6666C34.5857 59.8532 34.5316 59.0347 34.5548 58.2188C34.5677 57.7612 34.4233 57.5614 33.9322 57.5639C30.3023 57.582 26.6711 57.5807 23.0412 57.5858L23.0593 57.6039C23.0593 56.3084 23.0593 55.0143 23.0593 53.7188L23.0412 53.7368C26.6376 53.7355 30.2353 53.7278 33.8316 53.7433C34.3408 53.7459 34.5754 53.617 34.5561 53.0614C34.5187 51.9928 34.5342 50.9216 34.5277 49.8504L34.511 49.8672C35.5989 49.8775 36.6881 49.8723 37.7761 49.9046C38.2685 49.92 38.3986 49.7048 38.3909 49.2536C38.3729 48.2082 38.3922 47.1615 38.3961 46.1148L38.3793 46.1342C39.5343 46.111 40.6892 46.071 41.8429 46.0904C41.9705 46.0929 42.1935 46.4255 42.2026 46.6124C42.2412 47.4915 42.2374 48.3732 42.2154 49.2523C42.2038 49.7164 42.3585 49.9149 42.8432 49.9007C43.7236 49.8762 44.604 49.8775 45.4844 49.9046C45.9497 49.9187 46.0761 49.7164 46.0658 49.2884C46.0451 48.4518 46.0786 47.6127 46.0503 46.7761C46.0335 46.2721 46.1676 46.0427 46.7296 46.0504C48.8771 46.0775 51.0246 46.0736 53.1721 46.0504C53.6542 46.0452 53.7483 46.245 53.738 46.664C53.7174 47.5444 53.747 48.4248 53.7277 49.3052C53.7174 49.7538 53.8966 49.911 54.3374 49.9007C55.2178 49.8788 56.0982 49.8788 56.9786 49.9007C57.4311 49.9123 57.5832 49.7254 57.5741 49.2897C57.5548 48.4093 57.5509 47.5289 57.5767 46.6485C57.5896 46.2051 57.4414 46.0375 56.9876 46.0504C56.0866 46.0762 55.183 46.0427 54.282 46.0646C53.8605 46.0749 53.7135 45.9241 53.7251 45.5051C53.7496 44.6247 53.7496 43.7443 53.7277 42.8639C53.7161 42.4037 53.8618 42.1988 54.3516 42.2155C55.2101 42.2439 56.0699 42.2491 56.9283 42.2168C57.4568 42.1975 57.5935 42.4257 57.5793 42.9078C57.5535 43.7662 57.5909 44.626 57.5638 45.4845C57.5497 45.955 57.7636 46.071 58.1851 46.062C59.0436 46.0439 59.9047 46.0311 60.7619 46.0659C61.2917 46.0878 61.418 45.8596 61.4154 45.3801C61.4025 42.4592 61.409 39.5395 61.409 36.6186C61.409 34.8797 61.3922 33.1395 61.418 31.4007C61.4257 30.8657 61.2466 30.6943 60.7155 30.6994C59.6688 30.7097 58.6208 30.653 57.5741 30.6234L57.5896 30.6401C57.5845 29.5677 57.5909 28.4952 57.5677 27.424C57.5587 26.9974 57.7353 26.862 58.1413 26.8697C59.0423 26.8878 59.9434 26.8633 60.8431 26.88C61.2543 26.8878 61.4206 26.7344 61.4116 26.3155C61.3935 25.3938 61.3948 24.4709 61.4116 23.5492C61.4193 23.1509 61.2466 23.0259 60.8715 23.0323C59.9704 23.0478 59.0694 23.0517 58.1697 23.0323C57.7288 23.0233 57.5535 23.1818 57.5651 23.6317C57.5883 24.4889 57.5535 25.3474 57.5793 26.2046C57.5935 26.6777 57.4839 26.9123 56.9412 26.8852C56.0853 26.8427 55.2255 26.8568 54.3683 26.8839C53.9004 26.8981 53.7122 26.7395 53.729 26.2562C53.7561 25.4634 53.7316 24.6694 53.7316 23.8753C53.7316 23.0375 53.7329 23.0375 52.8653 23.0362C51.8573 23.0349 50.8493 23.0336 49.8413 23.0323L49.8593 23.0504C49.8709 20.774 49.8851 18.4975 49.8954 16.2211C49.8993 15.3652 49.8967 15.3639 50.7397 15.3626C51.5351 15.3613 52.3304 15.3459 53.1244 15.3691C53.5537 15.382 53.7445 15.2582 53.7406 14.7929C53.7238 12.6235 53.7251 10.454 53.738 8.28461C53.7406 7.83732 53.5717 7.6749 53.1309 7.68264C52.0352 7.70326 50.9395 7.69424 49.8439 7.69811L49.8619 7.71615C49.8735 6.64369 49.9019 5.56993 49.889 4.49746C49.8838 4.04115 50.0102 3.84135 50.5051 3.84522C52.6527 3.86455 54.8002 3.86198 56.9477 3.84522C57.4208 3.84135 57.5819 4.00892 57.5793 4.48457C57.5638 7.89919 57.5638 11.3138 57.578 14.7271C57.5793 15.1951 57.4324 15.3845 56.9503 15.3704C56.0711 15.3446 55.1895 15.3742 54.3091 15.3588C53.9185 15.3523 53.7161 15.4477 53.729 15.8963C53.7561 16.8192 53.7458 17.7435 53.7316 18.6664C53.7264 19.0479 53.8734 19.2065 54.2614 19.2039C56.4733 19.1949 58.6853 19.1936 60.8972 19.2052C61.2956 19.2078 61.4232 19.0467 61.4167 18.669C61.4025 17.768 61.427 16.8643 61.4051 15.9633C61.3948 15.5147 61.5688 15.3601 62.0097 15.3626C64.1791 15.3755 66.3472 15.3742 68.5167 15.3626C68.9317 15.3601 69.0941 15.5083 69.0851 15.9272C69.0671 16.7638 69.1135 17.6042 69.0722 18.4395C69.0426 19.0247 69.2282 19.2271 69.8315 19.2181C71.8707 19.1859 73.9125 19.2323 75.9505 19.1897C76.6208 19.1756 76.7973 19.3999 76.7716 20.0379C76.7316 21.0446 76.7819 22.0552 76.7948 23.0633L76.8115 23.0465C75.7197 23.0452 74.6279 23.0607 73.5361 23.0362C73.0553 23.0259 72.9122 23.2115 72.9135 23.6794C72.929 27.2977 72.9251 30.916 72.9264 34.5343L72.9445 34.5162C71.9145 34.5291 70.8833 34.5807 69.8547 34.5394C69.2089 34.5136 69.0619 34.7598 69.0709 35.3579C69.1019 37.3972 69.0632 39.4377 69.0941 41.4782C69.1032 42.0776 68.9072 42.271 68.3194 42.2413C67.4842 42.1988 66.645 42.2439 65.8071 42.2259C65.3908 42.2168 65.2309 42.3831 65.2387 42.7969C65.2554 43.6979 65.2541 44.6002 65.2387 45.5026C65.2322 45.9202 65.4075 46.0736 65.8162 46.0659C66.6966 46.0504 67.5783 46.0839 68.4574 46.0555C68.9433 46.0401 69.0916 46.2309 69.0864 46.6962C69.0684 48.2856 69.0619 49.8749 69.0916 51.463C69.1019 52.0431 68.8737 52.1874 68.3285 52.1848C65.0002 52.1655 61.672 52.19 58.3437 52.1707C57.3731 52.1642 56.4218 52.2364 55.531 52.6205C55.0696 52.8203 54.6764 53.1748 54.2291 53.4146C53.9481 53.5654 53.6272 53.7136 53.3191 53.7252C52.1603 53.7652 51.0001 53.7497 49.8413 53.7536C49.8593 52.6193 49.8903 51.4849 49.8787 50.3506C49.8774 50.2049 49.6595 49.9381 49.5358 49.9355C48.4066 49.9033 47.2761 49.9162 46.0645 49.9162C46.0645 51.0441 46.0851 52.0895 46.0554 53.1349C46.0413 53.6363 46.2591 53.7536 46.7077 53.7446C47.7582 53.7227 48.8088 53.7355 49.8593 53.7355C49.8709 56.1409 49.8916 58.5449 49.8748 60.9502C49.8735 61.1049 49.5887 61.3846 49.4275 61.3923C48.4633 61.4349 47.4953 61.4065 46.5285 61.4181C46.0387 61.4233 46.0567 61.101 46.058 60.762C46.0606 58.657 46.0593 56.5521 46.0593 54.4471C46.0593 54.2383 46.0593 54.0294 46.0593 53.7407C45.5153 53.7407 45.0487 53.7407 44.5808 53.7407C42.7555 53.7407 40.929 53.7536 39.1037 53.7317C38.5997 53.7252 38.3703 53.8464 38.3767 54.4071C38.4025 56.5546 38.3974 58.7034 38.3806 60.8509C38.3767 61.3202 38.5688 61.4375 38.9968 61.4246C39.8127 61.4001 40.6312 61.4529 41.4446 61.4039C42.0865 61.3653 42.2683 61.6192 42.2348 62.2212C42.1935 62.9701 42.2541 63.7255 42.2154 64.4757C42.1858 65.0519 42.3598 65.2955 42.9734 65.262C43.7868 65.2169 44.6053 65.2697 45.4212 65.2439C45.8866 65.2298 46.0838 65.3831 46.0683 65.8678C46.0426 66.6838 46.1006 67.5023 46.0503 68.3157C46.0116 68.9576 46.2604 69.1162 46.8637 69.102C48.3873 69.0646 49.9135 69.1033 51.4384 69.0775C51.9849 69.0685 52.186 69.2296 52.1809 69.8109C52.1551 73.1405 52.1551 76.47 52.1796 79.7996C52.1847 80.417 51.9888 80.6207 51.3701 80.6117C49.8967 80.5898 49.8967 80.6168 49.898 82.0992C49.898 82.7012 49.9109 83.3018 49.8954 83.9038C49.8851 84.2892 50.045 84.4517 50.4291 84.4388C50.8583 84.4246 51.2915 84.4065 51.7168 84.4517C51.8831 84.4697 52.1603 84.6424 52.1706 84.7623C52.2737 86.0462 52.8976 87.0774 53.6774 88.0442C53.7225 88.1009 53.7071 88.2066 53.7187 88.2904L53.7367 88.2736C52.6449 88.2749 51.5531 88.2878 50.4613 88.2723C50.0463 88.2659 49.8864 88.4231 49.8942 88.8382C49.9122 89.6941 49.8748 90.5526 49.907 91.4072C49.9264 91.9267 49.7627 92.1342 49.2174 92.1213C48.1914 92.0968 47.1627 92.1342 46.1354 92.1458C46.1096 91.8494 46.0606 91.5516 46.0593 91.2551C46.0554 89.3035 46.0632 87.3507 46.0645 85.3991C46.0658 84.4388 46.0632 84.4401 45.1299 84.4401C44.3578 84.4414 43.5857 84.4272 42.8136 84.4426C42.4204 84.4504 42.218 84.3369 42.2206 83.9C42.2322 81.7125 42.218 79.5237 42.2386 77.3363C42.2399 77.1519 42.4281 76.8103 42.5313 76.8103C43.6566 76.8052 44.7806 76.8542 45.9098 76.8851C45.9626 77.0733 46.0516 77.2628 46.0554 77.4536C46.0722 78.3108 46.0722 79.168 46.0632 80.0252C46.0593 80.3771 46.147 80.6052 46.5582 80.6013C47.5224 80.5923 48.4878 80.6155 49.4507 80.5781C49.6028 80.573 49.8658 80.3268 49.8722 80.1837C49.9096 79.1989 49.907 78.2115 49.8761 77.2267C49.8709 77.0733 49.6583 76.7962 49.5435 76.7974C48.328 76.8052 47.1137 76.858 45.8995 76.898C45.951 76.715 46.0464 76.5306 46.0477 76.3476C46.0606 74.0712 46.0542 71.7947 46.0645 69.5183C46.0658 69.1638 45.8879 69.0865 45.5824 69.0891C44.6594 69.0981 43.7352 69.1084 42.8123 69.0865C42.3559 69.0762 42.2129 69.2644 42.2219 69.7001C42.2425 70.5805 42.209 71.4622 42.2309 72.3413C42.2425 72.7963 42.0595 72.9446 41.6225 72.9355C40.7421 72.9149 39.8617 72.9446 38.9813 72.9226C38.534 72.911 38.3703 73.0838 38.3806 73.5272C38.4012 74.4076 38.3703 75.288 38.3922 76.1684C38.4038 76.608 38.2581 76.7884 37.8018 76.7755C36.9214 76.7497 36.041 76.782 35.1606 76.7614C34.7301 76.7523 34.5316 76.8915 34.5445 77.3504C34.5677 78.2308 34.5702 79.1125 34.5445 79.9916C34.529 80.4892 34.7533 80.6181 35.2044 80.6065C36.041 80.5846 36.8802 80.6233 37.7168 80.5936C38.2117 80.5756 38.4167 80.7303 38.3961 81.2497C38.3638 82.0863 38.3587 82.9255 38.3961 83.762C38.4206 84.3176 38.1898 84.4517 37.6781 84.4465C35.6169 84.4259 33.5545 84.4388 31.4921 84.4401C31.2613 84.4401 31.0306 84.4401 30.796 84.4401C30.7586 84.5896 30.7212 84.6695 30.7212 84.7494C30.7174 87.0477 30.7212 89.3461 30.7122 91.6431C30.7109 92.0169 30.8759 92.1226 31.2214 92.1188C32.1443 92.1059 33.0685 92.1201 33.9915 92.111C34.3537 92.1072 34.5574 92.2193 34.5535 92.6228C34.5419 93.5895 34.5638 94.5563 34.5329 95.5218C34.5277 95.6674 34.315 95.9278 34.1926 95.9304C33.0621 95.9626 31.929 95.9497 30.7522 95.9497C30.7367 95.6662 30.7161 95.456 30.7148 95.2472C30.7109 94.4094 30.7006 93.5715 30.7199 92.7349C30.7303 92.3147 30.6194 92.0981 30.1463 92.111C29.2453 92.1355 28.3417 92.1291 27.4407 92.111C27.0243 92.102 26.8658 92.2618 26.8735 92.6769C26.8915 93.5792 26.898 94.4815 26.8709 95.3826C26.8567 95.8479 27.0501 95.9717 27.4819 95.9601C28.3623 95.9381 29.2427 95.9729 30.1231 95.951C30.5691 95.9394 30.7315 96.1006 30.7212 96.5478C30.698 97.4489 30.7225 98.3512 30.7161 99.2535C30.7135 99.5706 30.7586 99.7988 31.1608 99.7897C32.2758 99.7627 33.3908 99.7536 34.5058 99.7382L34.4865 99.7201C34.5084 100.771 34.5664 101.821 34.5393 102.87C34.5238 103.47 34.7224 103.646 35.3114 103.639C37.3945 103.609 39.4788 103.639 41.5632 103.619C42.0582 103.614 42.2593 103.763 42.2386 104.279C42.2064 105.138 42.2451 105.998 42.2245 106.856C42.2142 107.289 42.3559 107.481 42.8148 107.47C43.6952 107.447 44.5769 107.449 45.4573 107.47C45.8892 107.48 46.0761 107.338 46.0735 106.881C46.0593 104.711 46.0593 102.542 46.0761 100.372C46.0799 99.9148 45.8982 99.773 45.4638 99.7833C44.6053 99.8039 43.7442 99.7653 42.8857 99.7962C42.3688 99.8142 42.218 99.6093 42.2232 99.1156C42.2412 97.0106 42.2412 94.9056 42.2232 92.7994C42.2193 92.3186 42.3443 92.0917 42.8728 92.1072C43.9672 92.1407 45.0642 92.1252 46.1586 92.1291C46.1289 93.1538 46.1276 94.1799 46.0619 95.2021C46.0232 95.8157 46.2707 95.9691 46.8443 95.9613C48.9235 95.9356 51.004 95.9652 53.0845 95.9433C53.5936 95.9381 53.7651 96.1134 53.7496 96.6123C53.7213 97.4901 53.7496 98.3705 53.738 99.2496C53.7329 99.6247 53.8747 99.7962 54.2678 99.7885C55.3828 99.7691 56.4965 99.7691 57.6115 99.7627L57.5948 99.7459C57.5896 100.836 57.6012 101.928 57.5716 103.019C57.5587 103.515 57.7765 103.644 58.2264 103.631C59.0604 103.609 59.8957 103.6 60.7297 103.636C61.2569 103.658 61.4386 103.488 61.4283 102.947C61.4077 101.879 61.4593 100.812 61.4812 99.7446L61.4618 99.7627C62.7135 99.7627 63.9638 99.7627 65.2155 99.7627L65.1948 99.7421C65.2129 100.878 65.2284 102.013 65.2503 103.149C65.258 103.52 65.0569 103.628 64.7244 103.626C63.9522 103.619 63.1788 103.626 62.4067 103.626C61.418 103.627 61.418 103.627 61.418 104.585C61.418 105.357 61.4038 106.13 61.4232 106.903C61.4335 107.322 61.2672 107.468 60.8547 107.467C58.666 107.456 56.4772 107.454 54.2884 107.467C53.8527 107.47 53.7329 107.278 53.7393 106.882C53.7548 106.023 53.7187 105.164 53.7535 104.308C53.7754 103.764 53.5627 103.596 53.0407 103.616C52.1835 103.649 51.3237 103.639 50.4665 103.621C50.0527 103.613 49.9006 103.77 49.9019 104.188C49.9148 106.377 49.9148 108.565 49.9019 110.754C49.8993 111.185 50.0875 111.31 50.4871 111.303C51.3456 111.287 52.2041 111.32 53.0626 111.292C53.5498 111.276 53.7561 111.423 53.7509 111.944C53.7303 114.09 53.7341 116.236 53.7483 118.381C53.7509 118.834 53.5769 118.986 53.1386 118.977C52.0442 118.952 50.9499 118.956 49.8555 118.95L49.8761 118.969C49.8851 117.897 49.8787 116.824 49.9109 115.753C49.9251 115.264 49.7227 115.118 49.2625 115.129C48.3834 115.151 47.503 115.12 46.6239 115.137C46.2063 115.145 46.0503 114.978 46.0593 114.567C46.0774 113.688 46.049 112.808 46.0761 111.928C46.0915 111.452 45.9137 111.29 45.4419 111.293C42.0092 111.306 38.5778 111.306 35.1452 111.293C34.7004 111.292 34.5432 111.433 34.5496 111.885C34.5638 112.956 34.5329 114.028 34.52 115.099L34.5354 115.081C33.4204 115.097 32.3054 115.132 31.1904 115.108C31.0306 115.105 30.7496 114.827 30.7431 114.668C30.7006 113.703 30.729 112.735 30.7187 111.77C30.7148 111.395 30.8965 111.294 31.2381 111.299C32.1404 111.311 33.0428 111.287 33.9438 111.307C34.3679 111.316 34.5767 111.205 34.5625 110.734C34.5354 109.833 34.5432 108.93 34.5599 108.028C34.5677 107.613 34.4001 107.457 33.9876 107.458C31.7976 107.468 29.6062 107.468 27.4162 107.456C26.974 107.453 26.8722 107.654 26.8799 108.046C26.8967 108.926 26.8683 109.807 26.8877 110.687C26.8967 111.115 26.7704 111.307 26.3063 111.306C21.5821 111.294 16.8565 111.296 12.1322 111.306C11.6862 111.307 11.5187 111.146 11.5303 110.703C11.5509 109.822 11.5522 108.942 11.5316 108.061C11.5212 107.615 11.6901 107.448 12.1348 107.458C13.0152 107.479 13.8956 107.448 14.776 107.468C15.2233 107.479 15.387 107.303 15.3767 106.863C15.3574 105.982 15.3883 105.102 15.3651 104.221C15.3535 103.773 15.5198 103.613 15.9645 103.621C17.0383 103.64 18.112 103.623 19.1858 103.621C19.1935 104.714 19.2115 105.806 19.2038 106.899C19.2012 107.306 19.3469 107.47 19.7684 107.467C21.9546 107.454 24.1408 107.453 26.327 107.468C26.742 107.471 26.898 107.336 26.8877 106.914C26.8658 106.014 26.8658 105.113 26.889 104.214C26.9006 103.774 26.7588 103.613 26.3025 103.617C23.9242 103.639 21.5447 103.634 19.1664 103.639C19.178 102.339 19.1896 101.04 19.2025 99.7408L19.1845 99.7588C21.7767 99.7446 24.3689 99.7317 26.9599 99.7188C26.9354 100.896 26.898 102.071 26.9096 103.246C26.9109 103.373 27.197 103.601 27.3582 103.608C28.2992 103.643 29.2427 103.618 30.1863 103.628C30.564 103.632 30.7264 103.483 30.7199 103.094C30.7058 102.216 30.6877 101.335 30.7303 100.459C30.7573 99.9045 30.5356 99.7678 30.0226 99.7768C28.9965 99.7936 27.9705 99.7536 26.9431 99.7369C26.9225 98.6902 26.8761 97.6435 26.8928 96.5981C26.9006 96.0851 26.7188 95.9291 26.2251 95.9472C25.3705 95.9781 24.5133 95.9394 23.6574 95.9613C23.2243 95.9717 23.0309 95.8299 23.0412 95.3748C23.0657 94.305 23.0619 93.2351 23.0683 92.1652C24.1614 92.1484 25.2545 92.1201 26.3489 92.1201C26.7214 92.1201 26.8967 92.0169 26.8877 91.6096C26.8671 90.6647 26.8748 89.7199 26.8851 88.775C26.889 88.4193 26.7433 88.2723 26.3875 88.2749C25.4427 88.2839 24.4978 88.2813 23.553 88.2736C23.2037 88.271 23.0412 88.4141 23.0477 88.7712C23.0554 89.8991 23.0631 91.0373 23.076 92.1742ZM65.1652 23.0813C65.1897 21.925 65.2309 20.7688 65.2142 19.6138C65.2116 19.4746 64.8971 19.2284 64.7192 19.2207C63.7975 19.1807 62.8733 19.2155 61.9504 19.1936C61.5173 19.1833 61.3961 19.3676 61.4038 19.7698C61.4232 20.6708 61.4232 21.5731 61.4025 22.4742C61.3935 22.8892 61.5443 23.0452 61.9633 23.0413C63.0357 23.031 64.1095 23.0542 65.182 23.0633C65.2026 24.1331 65.24 25.2043 65.2374 26.2742C65.2361 26.7151 65.3856 26.8904 65.8355 26.8788C66.7365 26.8568 67.6376 26.8633 68.5386 26.8775C68.9163 26.8826 69.0877 26.746 69.0825 26.3541C69.0696 25.4106 69.0722 24.4657 69.0825 23.5221C69.0864 23.1574 68.9137 23.0285 68.5708 23.0336C67.4352 23.0555 66.2995 23.0671 65.1652 23.0813Z" fill="#EEEEEE"/>
<path d="M138.164 107.49C138.159 108.564 138.17 109.638 138.143 110.712C138.132 111.17 138.316 111.308 138.752 111.297C139.632 111.274 140.514 111.306 141.393 111.285C141.841 111.275 141.995 111.454 141.992 111.894C141.979 114.02 141.972 116.146 141.996 118.273C142.003 118.813 141.817 118.979 141.29 118.973C139.207 118.951 137.122 118.979 135.039 118.952C134.481 118.945 134.277 119.102 134.299 119.679C134.339 120.73 134.308 121.784 134.307 122.836C132.997 122.841 131.689 122.848 130.381 122.853C130.412 122.6 130.467 122.346 130.468 122.092C130.475 119.989 130.484 117.884 130.463 115.78C130.458 115.271 130.632 115.098 131.136 115.116C131.993 115.147 132.854 115.108 133.712 115.13C134.155 115.141 134.328 114.977 134.317 114.53C134.297 113.649 134.298 112.769 134.319 111.89C134.329 111.445 134.154 111.283 133.712 111.285C131.543 111.298 129.374 111.298 127.206 111.284C126.792 111.281 126.633 111.421 126.635 111.842C126.645 115.299 126.646 118.755 126.635 122.212C126.633 122.669 126.815 122.806 127.247 122.804C128.298 122.796 129.349 122.823 130.401 122.835C130.426 123.901 130.475 124.967 130.462 126.033C130.457 126.521 130.624 126.665 131.095 126.646C131.971 126.614 132.85 126.619 133.727 126.641C134.185 126.653 134.325 126.458 134.316 126.028C134.293 124.958 134.297 123.888 134.29 122.818C135.363 122.812 136.435 122.83 137.506 122.791C138.037 122.772 138.172 122.991 138.156 123.475C138.129 124.333 138.165 125.191 138.144 126.048C138.134 126.497 138.312 126.654 138.753 126.644C139.632 126.622 140.512 126.653 141.39 126.632C141.835 126.622 141.995 126.792 141.992 127.236C141.978 129.402 141.981 131.568 141.991 133.735C141.993 134.138 141.862 134.324 141.435 134.315C140.534 134.297 139.633 134.292 138.734 134.315C138.273 134.326 138.134 134.132 138.144 133.701C138.164 132.822 138.135 131.942 138.156 131.064C138.166 130.621 137.998 130.454 137.552 130.467C136.672 130.492 135.792 130.492 134.914 130.468C134.471 130.457 134.297 130.612 134.307 131.06C134.328 131.917 134.293 132.777 134.32 133.633C134.335 134.119 134.191 134.341 133.668 134.319C132.576 134.275 131.483 134.274 130.391 134.256L130.409 134.275C130.431 133.743 130.468 133.21 130.471 132.677C130.479 130.877 130.464 129.079 130.481 127.279C130.485 126.826 130.365 126.626 129.869 126.631C127.728 126.652 125.586 126.648 123.444 126.632C122.983 126.628 122.783 126.77 122.799 127.257C122.832 128.305 122.826 129.355 122.836 130.403L122.853 130.385C121.676 130.412 120.498 130.457 119.321 130.441C119.2 130.44 118.99 130.089 118.981 129.894C118.942 129.036 118.943 128.175 118.97 127.317C118.986 126.828 118.836 126.612 118.314 126.631C117.478 126.662 116.638 126.666 115.802 126.63C115.244 126.605 115.099 126.846 115.117 127.354C115.146 128.169 115.106 128.987 115.132 129.802C115.147 130.297 114.978 130.501 114.464 130.481C113.627 130.45 112.788 130.495 111.952 130.466C111.445 130.448 111.277 130.636 111.283 131.139C111.303 133.222 111.31 135.306 111.28 137.389C111.271 137.978 111.446 138.164 112.046 138.161C116.578 138.139 121.11 138.15 125.642 138.15C126.823 138.15 126.617 138.127 126.636 139.165C126.649 139.853 126.606 140.542 126.649 141.227C126.685 141.817 126.478 142.001 125.883 141.997C121.867 141.976 117.85 141.986 113.833 141.987C111.986 141.987 110.139 141.988 108.292 141.987C107.453 141.987 107.453 141.986 107.452 141.118C107.45 140.323 107.432 139.528 107.457 138.735C107.471 138.279 107.284 138.134 106.847 138.145C105.967 138.165 105.085 138.133 104.206 138.156C103.756 138.168 103.597 137.995 103.609 137.552C103.631 136.651 103.626 135.747 103.612 134.846C103.605 134.461 103.755 134.305 104.141 134.31C105.044 134.324 105.946 134.301 106.847 134.319C107.283 134.328 107.468 134.173 107.457 133.721C107.435 132.84 107.431 131.959 107.459 131.079C107.476 130.581 107.258 130.454 106.804 130.467C105.946 130.492 105.086 130.458 104.228 130.479C103.795 130.489 103.6 130.349 103.612 129.891C103.632 129.011 103.632 128.129 103.608 127.25C103.595 126.761 103.806 126.617 104.265 126.63C105.124 126.653 105.983 126.621 106.842 126.643C107.274 126.654 107.459 126.521 107.458 126.06C107.445 122.623 107.441 119.187 107.462 115.75C107.464 115.203 107.223 115.116 106.759 115.119C104.676 115.134 102.592 115.111 100.509 115.136C99.9559 115.142 99.7355 114.983 99.7651 114.406C99.8064 113.571 99.7909 112.73 99.7703 111.894C99.7587 111.453 99.9172 111.275 100.368 111.286C101.249 111.307 102.13 111.275 103.01 111.297C103.449 111.308 103.632 111.159 103.621 110.705C103.599 109.825 103.596 108.943 103.622 108.064C103.636 107.57 103.419 107.443 102.963 107.446C100.858 107.462 98.7532 107.472 96.6483 107.443C96.0592 107.435 95.929 107.663 95.9316 108.202C95.9496 111.509 95.938 114.817 95.9367 118.125C95.9367 118.961 95.9354 118.961 95.0782 118.963C94.3048 118.964 93.5314 118.941 92.7593 118.97C92.2462 118.991 92.0916 118.789 92.0954 118.292C92.1148 116.209 92.0812 114.125 92.1135 112.042C92.1225 111.435 91.915 111.25 91.3336 111.28C90.5409 111.32 89.743 111.317 88.9502 111.281C88.4011 111.256 88.2387 111.48 88.258 111.997C88.2877 112.811 88.2477 113.63 88.2735 114.445C88.2889 114.925 88.1536 115.139 87.6225 115.134C85.4969 115.111 83.37 115.112 81.2431 115.134C80.7275 115.139 80.5664 114.951 80.5832 114.456C80.6115 113.598 80.5729 112.738 80.5973 111.879C80.6102 111.426 80.4336 111.275 79.9941 111.285C79.0931 111.306 78.1895 111.285 77.2884 111.292C76.9559 111.294 76.7509 111.192 76.7586 110.819C76.7805 109.704 76.796 108.589 76.8141 107.474L76.7947 107.489C77.7808 107.477 78.7695 107.495 79.7543 107.441C80.3911 107.407 80.6412 107.596 80.6064 108.268C80.5535 109.247 80.5935 110.231 80.5935 111.292C81.7265 111.292 82.7732 111.274 83.8212 111.299C84.3175 111.311 84.4489 111.094 84.4361 110.641C84.4128 109.869 84.4309 109.095 84.4322 108.322C84.4335 107.458 84.4348 107.454 85.2739 107.454C87.2925 107.453 89.3099 107.439 91.3285 107.463C91.884 107.47 92.1328 107.35 92.1212 106.723C92.0851 104.642 92.0967 102.559 92.1173 100.477C92.1225 99.9598 91.9704 99.751 91.4238 99.7678C90.3733 99.7974 89.3215 99.7626 88.2696 99.7549C88.2709 98.7275 88.2464 97.7002 88.2825 96.6754C88.3018 96.1327 88.1613 95.8981 87.571 95.9329C86.7821 95.9806 85.9855 95.9871 85.1979 95.9329C84.5534 95.8891 84.3987 96.1418 84.4219 96.7399C84.4605 97.7427 84.4219 98.7494 84.4154 99.7549C83.1213 99.7484 81.8258 99.742 80.5316 99.7355L80.5509 99.751C80.5664 98.7018 80.6012 97.6525 80.587 96.6045C80.5806 96.1095 80.7301 95.9123 81.2483 95.9329C82.1261 95.969 83.0065 95.9252 83.8844 95.9523C84.3097 95.9652 84.4502 95.8131 84.4386 95.3967C84.4154 94.5395 84.4593 93.681 84.4206 92.8251C84.3948 92.2579 84.5985 92.0865 85.1579 92.0904C88.4797 92.1123 91.8028 92.0865 95.1246 92.1187C95.7666 92.1252 96.005 91.964 95.9535 91.2989C95.8761 90.2999 95.88 89.2958 95.8504 88.2942L95.831 88.3109C96.9473 88.2968 98.0623 88.2697 99.1786 88.2774C99.6169 88.28 99.7973 88.1318 99.787 87.6806C99.7651 86.8015 99.8025 85.9198 99.7741 85.0407C99.7574 84.5406 99.9765 84.4142 100.429 84.4258C101.287 84.4477 102.147 84.4542 103.004 84.4258C103.498 84.4091 103.628 84.6179 103.624 85.0755C103.609 87.1792 103.636 89.2842 103.608 91.3878C103.6 91.9447 103.755 92.1419 104.332 92.1239C105.383 92.0891 106.435 92.1342 107.486 92.1458C107.477 93.2621 107.449 94.3784 107.479 95.4947C107.482 95.6494 107.757 95.9213 107.916 95.9278C108.88 95.969 109.848 95.9432 110.815 95.951C111.12 95.9536 111.301 95.8724 111.297 95.5192C111.285 94.5318 111.31 93.5431 111.272 92.5557C111.267 92.4049 111.018 92.1381 110.879 92.1355C109.743 92.1161 108.607 92.1484 107.47 92.1638C107.466 89.7817 107.47 87.3996 107.452 85.0175C107.448 84.5612 107.633 84.4181 108.066 84.4284C108.925 84.449 109.785 84.4606 110.642 84.4271C111.145 84.4078 111.312 84.5663 111.306 85.0807C111.28 87.183 111.312 89.2867 111.284 91.3904C111.276 91.9499 111.435 92.1548 112.01 92.1213C112.779 92.0762 113.556 92.0788 114.326 92.1213C114.929 92.1548 115.155 91.9756 115.143 91.3337C115.106 89.2738 115.15 87.2127 115.119 85.1528C115.11 84.5857 115.273 84.4207 115.843 84.4233C120.436 84.4439 125.029 84.4361 129.621 84.4336C130.473 84.4336 130.475 84.4284 130.477 83.5789C130.48 82.7849 130.495 81.9909 130.473 81.1968C130.462 80.7573 130.618 80.5794 131.069 80.591C131.926 80.6142 132.786 80.5768 133.644 80.6039C134.127 80.6193 134.346 80.4866 134.326 79.9568C134.289 78.9062 134.31 77.8544 134.307 76.8026L134.288 76.8167C135.583 76.8167 136.877 76.8167 138.173 76.8167L138.153 76.8026C138.163 78.0426 138.172 79.2813 138.182 80.5214L138.199 80.5033C137.152 80.5343 136.104 80.6077 135.059 80.582C134.451 80.5665 134.298 80.7714 134.307 81.3502C134.338 83.3456 134.32 85.3423 134.319 87.3377C134.319 88.271 134.317 88.2723 133.351 88.2736C131.355 88.2749 129.358 88.2929 127.363 88.2645C126.789 88.2568 126.612 88.454 126.636 89.0096C126.673 89.8449 126.662 90.684 126.639 91.5206C126.627 91.9731 126.81 92.1265 127.247 92.1174C128.126 92.0981 129.007 92.1277 129.887 92.1084C130.338 92.0981 130.493 92.285 130.483 92.722C130.463 93.5586 130.508 94.3977 130.468 95.233C130.441 95.8131 130.668 95.9819 131.219 95.9587C132.054 95.9226 132.893 95.9664 133.73 95.9432C134.182 95.9304 134.335 96.1108 134.324 96.5504C134.302 97.4295 134.299 98.3099 134.321 99.1903C134.333 99.6389 134.159 99.7936 133.717 99.7897C131.57 99.7755 129.424 99.7678 127.278 99.7936C126.743 99.8 126.621 99.5783 126.634 99.1052C126.658 98.2686 126.626 97.4308 126.649 96.5942C126.662 96.1418 126.537 95.9252 126.035 95.9432C125.136 95.9742 124.232 95.9652 123.332 95.9445C122.938 95.9355 122.799 96.0915 122.804 96.4743C122.819 97.5687 122.813 98.6631 122.815 99.7575L122.835 99.742C120.248 99.7497 117.661 99.7575 115.074 99.7652C115.092 98.6334 115.125 97.5017 115.108 96.3712C115.106 96.2307 114.834 95.9793 114.68 95.9742C113.698 95.9368 112.713 95.9394 111.73 95.9677C111.584 95.9716 111.324 96.183 111.322 96.3003C111.312 97.4527 111.344 98.6038 111.365 99.7562C110.249 99.7639 109.131 99.7639 108.015 99.7858C107.592 99.7936 107.449 99.6118 107.455 99.2058C107.471 98.3254 107.435 97.4437 107.466 96.5646C107.484 96.0734 107.293 95.9304 106.829 95.9445C105.949 95.9716 105.067 95.9665 104.188 95.9471C103.777 95.9381 103.615 96.076 103.618 96.5014C103.632 98.6708 103.636 100.84 103.617 103.01C103.613 103.505 103.813 103.641 104.269 103.63C105.106 103.608 105.946 103.65 106.781 103.614C107.329 103.591 107.493 103.806 107.471 104.328C107.437 105.121 107.497 105.919 107.45 106.712C107.415 107.321 107.647 107.506 108.23 107.47C108.915 107.428 109.604 107.459 110.291 107.461C111.297 107.461 111.292 107.461 111.298 106.44C111.311 104.207 111.33 101.975 111.347 99.7407C112.595 99.7433 113.843 99.7459 115.092 99.7497C115.106 100.754 115.124 101.758 115.134 102.762C115.143 103.621 115.139 103.622 115.972 103.623C118.26 103.626 120.548 103.627 122.836 103.63L122.818 103.613C122.817 104.644 122.845 105.675 122.801 106.705C122.777 107.3 122.971 107.479 123.568 107.475C128.143 107.453 132.718 107.462 137.291 107.466C137.59 107.466 137.889 107.501 138.188 107.519C138.181 107.508 138.164 107.49 138.164 107.49ZM111.293 117.085C111.293 118.758 111.31 120.432 111.283 122.105C111.275 122.636 111.448 122.813 111.982 122.809C115.373 122.791 118.763 122.79 122.153 122.81C122.679 122.813 122.812 122.616 122.81 122.132C122.797 118.742 122.796 115.352 122.81 111.962C122.813 111.472 122.665 111.28 122.149 111.283C118.759 111.299 115.369 111.301 111.979 111.283C111.435 111.28 111.276 111.48 111.284 111.999C111.306 113.694 111.292 115.389 111.293 117.085ZM95.9393 97.8085C95.9406 97.8085 95.9419 97.8085 95.9432 97.8085C95.9432 99.5048 95.9638 101.202 95.9316 102.899C95.9212 103.475 96.1236 103.65 96.6779 103.623C97.4707 103.585 98.2686 103.585 99.0613 103.623C99.6362 103.652 99.7961 103.434 99.7896 102.877C99.7625 100.794 99.7909 98.7095 99.7677 96.6264C99.7612 96.0915 99.9417 95.9084 100.474 95.9291C101.331 95.9639 102.192 95.9252 103.051 95.9432C103.463 95.9523 103.631 95.8027 103.622 95.3825C103.604 94.4802 103.597 93.5779 103.623 92.6769C103.636 92.2141 103.444 92.0929 103.013 92.0968C100.866 92.111 98.7171 92.1174 96.5696 92.0916C96.0321 92.0852 95.9264 92.3082 95.9316 92.7813C95.9509 94.4583 95.9393 96.134 95.9393 97.8085ZM122.799 90.189C122.799 89.7392 122.784 89.2893 122.803 88.8407C122.818 88.4386 122.672 88.2542 122.247 88.262C121.327 88.28 120.406 88.2787 119.486 88.2632C119.093 88.2568 118.956 88.427 118.961 88.8033C118.974 89.7237 118.979 90.6441 118.961 91.5644C118.952 91.9976 119.152 92.1239 119.548 92.1084C119.996 92.0891 120.446 92.1058 120.896 92.1045C122.808 92.102 122.808 92.102 122.799 90.189Z" fill="#EEEEEE"/>
<path d="M26.9366 42.2735C27.9846 42.2581 29.0326 42.2233 30.0805 42.2336C30.5575 42.2387 30.7263 42.0621 30.7134 41.5929C30.6902 40.737 30.7276 39.8785 30.7018 39.0226C30.6877 38.5599 30.832 38.3601 31.3206 38.3755C32.1984 38.4039 33.0775 38.4013 33.9553 38.3807C34.4039 38.3691 34.5638 38.5418 34.5522 38.9839C34.5315 39.8192 34.5754 40.6558 34.538 41.4898C34.5135 42.0402 34.6811 42.2645 35.2598 42.2349C36.0938 42.1923 36.9304 42.2439 37.7657 42.2168C38.2491 42.2013 38.4025 42.3908 38.3909 42.8575C38.3664 43.9493 38.3806 45.0424 38.3793 46.1354L38.396 46.1161C37.2655 46.0981 36.1338 46.0826 35.0033 46.062C34.5676 46.0542 34.547 46.3417 34.5444 46.6652C34.5367 47.7325 34.5212 48.7999 34.5096 49.8685L34.5264 49.8517C34.2492 49.8672 33.9721 49.8968 33.695 49.8981C30.3719 49.902 27.05 49.9097 23.7269 49.8917C23.1997 49.8891 23.0077 50.0489 23.0257 50.5877C23.0605 51.637 23.0373 52.6875 23.0386 53.7381L23.0567 53.7201C22.0693 53.7252 21.0806 53.7317 20.0932 53.7329C19.1999 53.7342 19.1973 53.7317 19.1973 52.8538C19.1973 49.5462 19.1896 46.2373 19.2063 42.9296C19.2089 42.4089 19.0555 42.1923 18.5103 42.2142C17.6737 42.249 16.8345 42.24 15.998 42.2168C15.5326 42.2039 15.3393 42.3638 15.3535 42.8484C15.3792 43.7288 15.3483 44.6092 15.3663 45.4896C15.3754 45.9008 15.2233 46.0749 14.8056 46.0671C13.9252 46.0517 13.0435 46.0439 12.1644 46.0658C11.6965 46.0774 11.507 45.915 11.5212 45.4342C11.547 44.5538 11.516 43.6734 11.5328 42.793C11.5405 42.3818 11.3897 42.2117 10.9695 42.2194C10.0672 42.2361 9.16486 42.2387 8.26383 42.2155C7.79334 42.2039 7.68377 42.4243 7.68635 42.8433C7.70053 45.1841 7.69924 47.5263 7.70311 49.8672L7.72116 49.8491C6.71572 49.8646 5.71028 49.8839 4.70484 49.8929C3.85667 49.9007 3.85667 49.8955 3.85538 50.7424C3.84893 54.3194 3.84249 57.8952 3.83604 61.4722L3.8528 61.4529C2.78033 61.4387 1.70915 61.4052 0.636687 61.4168C0.161038 61.422 0.00635551 61.2544 0.00764453 60.7787C0.0192457 53.5228 0.0179567 46.2682 0.00635551 39.0123C0.00506648 38.5367 0.162327 38.3601 0.637976 38.3755C1.45264 38.4013 2.27117 38.3536 3.08454 38.3923C3.65945 38.4206 3.90307 38.2556 3.86569 37.6395C3.81671 36.848 3.8876 36.0501 3.84378 35.2587C3.81155 34.6747 4.03971 34.5304 4.58883 34.5368C6.64869 34.5626 8.70983 34.5291 10.771 34.5574C11.3575 34.5652 11.5753 34.3924 11.5418 33.7892C11.4954 32.9552 11.5431 32.1147 11.5263 31.2782C11.5186 30.8695 11.6681 30.6955 12.0884 30.7033C12.9894 30.72 13.8917 30.7226 14.7927 30.7007C15.2619 30.6891 15.3779 30.9121 15.3702 31.331C15.3522 32.1895 15.3818 33.0493 15.3573 33.9065C15.3444 34.3731 15.4991 34.5652 15.9851 34.5497C16.8217 34.5226 17.6595 34.569 18.4961 34.5368C19.0194 34.5175 19.2347 34.6851 19.2089 35.229C19.1741 35.9999 19.1986 36.7746 19.2012 37.5467C19.2038 38.3794 19.2051 38.3807 20.0713 38.3807C22.0886 38.382 24.1072 38.3987 26.1245 38.3691C26.7175 38.3601 26.9031 38.547 26.8902 39.1412C26.867 40.1892 26.9315 41.2384 26.9585 42.2851C25.8036 42.2632 24.6486 42.2245 23.4949 42.2426C23.3415 42.2452 23.0708 42.5339 23.0644 42.6989C23.0218 43.6399 23.0502 44.5822 23.0399 45.5244C23.0347 45.9086 23.1984 46.0581 23.5787 46.0529C24.4565 46.0413 25.3356 46.0323 26.2122 46.0645C26.7085 46.0826 26.8941 45.9189 26.8876 45.4071C26.8696 44.3656 26.916 43.3202 26.9366 42.2735Z" fill="#EEEEEE"/>
<path d="M92.1354 34.5136C92.1251 36.8957 92.1213 39.2778 92.0981 41.66C92.0929 42.1369 92.3249 42.2297 92.7361 42.2271C94.8179 42.2168 96.901 42.2426 98.9827 42.2117C99.5976 42.2026 99.7961 42.3908 99.7909 43.0147C99.7639 46.3198 99.7909 49.6261 99.7652 52.9312C99.76 53.5396 99.9211 53.7793 100.555 53.7432C101.369 53.6956 102.187 53.7548 103.002 53.7265C103.49 53.7097 103.637 53.9095 103.625 54.3723C103.6 55.2308 103.635 56.0893 103.609 56.9478C103.595 57.4247 103.774 57.5832 104.248 57.5794C106.417 57.5613 108.585 57.5704 110.753 57.5755C110.965 57.5755 111.178 57.6129 111.391 57.6309C111.39 57.6297 111.37 57.6116 111.37 57.6116C111.344 58.639 111.284 59.6663 111.308 60.6924C111.321 61.2634 111.142 61.422 110.579 61.4194C105.983 61.3988 101.387 61.4078 96.7914 61.4091C95.9471 61.4091 95.9458 61.4116 95.9432 62.274C95.9406 63.0036 95.9806 63.737 95.9316 64.464C95.8891 65.106 96.1495 65.2645 96.7501 65.2555C98.7894 65.2259 100.831 65.2658 102.87 65.231C103.48 65.2207 103.655 65.4282 103.628 66.0083C103.588 66.8436 103.606 67.6827 103.623 68.5206C103.632 68.937 103.466 69.0865 103.052 69.0852C99.595 69.0749 96.1366 69.0736 92.6794 69.0852C92.2089 69.0865 92.0942 68.8764 92.1019 68.4574C92.1187 67.599 92.089 66.7392 92.1122 65.8807C92.1238 65.4218 91.9885 65.2375 91.4922 65.2362C89.8332 65.2323 89.8332 65.2143 89.8358 63.5643C89.8371 63.0268 89.8461 62.4906 89.8371 61.953C89.8307 61.5779 89.9931 61.391 90.3746 61.4078C90.4816 61.4129 90.5899 61.4052 90.6969 61.4052C92.1058 61.3962 92.1058 61.3962 92.1058 59.955C92.1058 59.4175 92.0697 58.8774 92.1174 58.3451C92.1741 57.7018 91.9047 57.4995 91.3014 57.5652C90.9624 57.6013 90.6092 57.6052 90.2741 57.5536C90.1091 57.5291 89.8436 57.3564 89.8332 57.2339C89.7327 55.9977 89.1359 55 88.4089 54.0462C88.2954 53.8966 88.2787 53.6479 88.2761 53.4429C88.2593 52.2402 88.2606 51.0376 88.2568 49.8362C90.6608 49.8556 93.0648 49.8723 95.4676 49.8942C95.8388 49.8981 95.9471 49.697 95.9445 49.3644C95.9381 48.484 95.9226 47.6023 95.9522 46.7232C95.969 46.2166 95.7782 46.0465 95.2768 46.0504C93.1499 46.071 91.0243 46.0723 88.8974 46.0542C88.4127 46.0504 88.2555 46.2321 88.2658 46.6974C88.2864 47.7493 88.2735 48.8024 88.2748 49.8543C87.1598 49.8672 86.0448 49.8723 84.9311 49.8955C84.5147 49.9045 84.4309 49.6764 84.4309 49.3258C84.4361 47.1589 84.4413 44.9908 84.4297 42.8239C84.4271 42.387 84.5766 42.2052 85.0291 42.2168C85.8656 42.24 86.7035 42.1936 87.5388 42.2336C88.0969 42.2606 88.2916 42.084 88.2838 41.5091C88.2555 39.4287 88.289 37.3456 88.2619 35.2651C88.2542 34.6928 88.4488 34.5201 89.007 34.5368C90.0575 34.569 91.1094 34.5368 92.1599 34.5317C92.1535 34.5317 92.1354 34.5136 92.1354 34.5136Z" fill="#EEEEEE"/>
<path d="M0.0129907 13.4458C0.0117017 9.25777 0.0117017 5.07102 0.0129907 0.882986C0.0129907 0.015474 0.0142797 0.0128959 0.846988 0.0128959C9.26559 0.0128959 17.6829 0.0193411 26.1015 5.71621e-06C26.7422 -0.00128331 26.8865 0.215273 26.8852 0.815957C26.8685 9.23456 26.8672 17.6519 26.8904 26.0705C26.8917 26.7446 26.6738 26.889 26.0435 26.8877C17.6687 26.8684 9.29266 26.8748 0.917884 26.8748C0.0155687 26.8748 0.0142797 26.8723 0.0142797 25.9455C0.0129907 21.778 0.0129907 17.6119 0.0129907 13.4458ZM23.0362 13.4445C23.0362 10.5017 23.0233 7.55755 23.0478 4.61471C23.053 4.03594 22.8957 3.83614 22.2899 3.83743C16.3823 3.85805 10.4747 3.85676 4.56711 3.83871C3.99091 3.83743 3.8401 4.02305 3.84139 4.5799C3.85814 10.4875 3.85814 16.3951 3.84139 22.3027C3.8401 22.8544 3.98705 23.049 4.56582 23.0464C10.4734 23.0271 16.381 23.0245 22.2886 23.0452C22.8918 23.0477 23.0517 22.8544 23.0465 22.273C23.0208 19.3315 23.0349 16.3886 23.0362 13.4445Z" fill="#EEEEEE"/>
<path d="M115.126 13.4484C115.126 9.26037 115.126 5.07363 115.126 0.885591C115.126 0.0180785 115.128 0.0142114 115.957 0.0142114C124.331 0.0129224 132.706 0.0129224 141.081 0.0142114C141.988 0.0142114 141.988 0.0180785 141.988 0.942308C141.988 9.25264 141.988 17.563 141.988 25.8746C141.988 26.8736 141.987 26.8749 141.024 26.8749C132.692 26.8762 124.36 26.8762 116.027 26.8762C115.128 26.8762 115.126 26.8749 115.126 25.9481C115.126 21.7794 115.126 17.6145 115.126 13.4484ZM128.556 23.0362C131.498 23.0362 134.441 23.0233 137.384 23.0465C137.959 23.0516 138.164 22.9021 138.161 22.2911C138.139 16.4054 138.139 10.5185 138.161 4.63278C138.164 4.00374 137.968 3.83745 137.356 3.84003C131.491 3.86065 125.627 3.85937 119.762 3.84003C119.155 3.83745 118.948 3.99729 118.951 4.6302C118.973 10.5159 118.972 16.4028 118.952 22.2885C118.95 22.8905 119.143 23.0529 119.726 23.049C122.669 23.0233 125.613 23.0362 128.556 23.0362Z" fill="#EEEEEE"/>
<path d="M26.8735 128.621C26.8735 132.809 26.8631 136.996 26.8851 141.184C26.8876 141.785 26.7407 142 26.1013 141.999C17.6827 141.979 9.26541 141.987 0.846807 141.987C0.0115202 141.987 0.0115201 141.982 0.0115201 141.117C0.0128091 132.698 0.0192543 124.281 0.00507501 115.863C0.00378598 115.312 0.139133 115.115 0.721772 115.116C9.18292 115.133 17.6441 115.134 26.1052 115.115C26.7497 115.114 26.8876 115.337 26.8851 115.932C26.8631 120.16 26.8735 124.391 26.8735 128.621ZM13.5011 118.964C10.5364 118.964 7.57164 118.978 4.60689 118.952C4.01651 118.947 3.83605 119.125 3.83863 119.719C3.85796 125.605 3.85796 131.492 3.84121 137.378C3.83992 137.945 3.97011 138.164 4.58884 138.161C10.4964 138.139 16.404 138.143 22.3116 138.16C22.8749 138.161 23.0464 137.996 23.0451 137.427C23.027 131.562 23.0348 125.698 23.0348 119.833C23.0348 118.968 23.0335 118.964 22.135 118.964C19.2592 118.963 16.3795 118.964 13.5011 118.964Z" fill="#EEEEEE"/>
<path d="M95.8594 23.0413C95.8839 21.8851 95.9226 20.7288 95.9252 19.5726C95.9264 19.1085 95.5294 19.2039 95.2484 19.2026C93.186 19.1962 91.1236 19.1781 89.0624 19.2116C88.4475 19.222 88.2181 19.0415 88.2568 18.4137C88.3045 17.6429 88.3057 16.8656 88.2568 16.0948C88.2168 15.4683 88.4862 15.3433 89.0469 15.351C91.0655 15.3768 93.0854 15.3381 95.1041 15.3742C95.7331 15.3858 96.0025 15.2389 95.9522 14.5557C95.8942 13.7655 95.9703 12.9663 95.9342 12.1736C95.9097 11.6464 96.1224 11.502 96.6122 11.5175C97.4707 11.5445 98.3305 11.5085 99.189 11.5317C99.6427 11.5445 99.7935 11.3615 99.7832 10.9232C99.7574 9.84948 99.7626 8.77573 99.7561 7.70197L99.7368 7.71744C100.832 7.70713 101.927 7.68134 103.023 7.69424C103.474 7.69939 103.634 7.52795 103.624 7.08968C103.606 6.20928 103.603 5.32759 103.623 4.44719C103.634 4.00376 103.472 3.83748 103.024 3.84393C101.928 3.86068 100.832 3.83877 99.7381 3.83232L99.7561 3.84908C99.7639 2.77662 99.7909 1.70286 99.7716 0.630393C99.7626 0.14572 99.9482 6.06535e-05 100.414 0.00392772C102.538 0.020685 104.663 0.0284191 106.788 0.00134968C107.351 -0.00638446 107.467 0.221773 107.463 0.72578C107.444 2.76501 107.455 4.80425 107.458 6.84219C107.459 7.67748 107.461 7.68006 108.322 7.68392C109.116 7.6865 109.911 7.70068 110.704 7.67877C111.155 7.66588 111.299 7.8515 111.298 8.28848C111.289 14.2773 111.29 20.2648 111.298 26.2536C111.298 26.6738 111.192 26.8904 110.721 26.8775C109.82 26.853 108.917 26.8568 108.016 26.8762C107.597 26.8852 107.441 26.7202 107.449 26.3077C107.464 25.4067 107.441 24.5044 107.458 23.6033C107.466 23.196 107.319 23.0207 106.897 23.0297C105.996 23.0491 105.094 23.0542 104.193 23.0284C103.724 23.0156 103.604 23.227 103.613 23.6485C103.631 24.507 103.603 25.3654 103.623 26.2239C103.635 26.6738 103.51 26.8955 103.01 26.8788C102.131 26.8491 101.25 26.8568 100.37 26.8788C99.9237 26.8904 99.76 26.7228 99.7716 26.2768C99.7948 25.4183 99.7561 24.5598 99.7858 23.7013C99.8025 23.205 99.6401 23.0104 99.1258 23.022C98.0314 23.0478 96.937 23.0246 95.8427 23.0207L95.8594 23.0413Z" fill="#EEEEEE"/>
<path d="M69.0568 118.961C70.351 118.96 71.6451 118.96 72.9393 118.959L72.9213 118.941C72.9213 119.972 72.9471 121.004 72.911 122.033C72.8903 122.605 73.0476 122.854 73.665 122.814C74.414 122.765 75.168 122.8 75.9195 122.801C76.7548 122.803 76.7561 122.804 76.7587 123.67C76.7613 124.465 76.7767 125.261 76.7523 126.055C76.7381 126.507 76.9147 126.646 77.3568 126.644C79.4618 126.627 81.5668 126.656 83.6717 126.626C84.2685 126.617 84.4696 126.814 84.44 127.404C84.3987 128.24 84.4142 129.08 84.4335 129.917C84.4426 130.336 84.2789 130.48 83.8651 130.477C81.6957 130.465 79.5262 130.463 77.3568 130.479C76.9082 130.481 76.7458 130.314 76.7548 129.872C76.7729 128.969 76.7484 128.067 76.7626 127.165C76.769 126.782 76.6311 126.632 76.2379 126.635C74.0466 126.648 71.8553 126.65 69.6652 126.635C69.2025 126.632 69.0697 126.828 69.0787 127.255C69.0968 128.093 69.0607 128.931 69.0916 129.767C69.1109 130.289 68.9446 130.503 68.3981 130.481C67.5409 130.447 66.6798 130.496 65.8213 130.467C65.3586 130.452 65.2258 130.632 65.24 131.069C65.2658 131.906 65.2761 132.746 65.2374 133.581C65.2116 134.142 65.396 134.326 65.9683 134.323C69.4693 134.299 72.9716 134.311 76.4725 134.311C77.6327 134.311 78.7928 134.324 79.9529 134.306C80.4118 134.298 80.6064 134.445 80.6026 134.932C80.5858 137.08 80.5897 139.229 80.6039 141.376C80.6064 141.811 80.4634 142.003 80.0096 141.992C79.1292 141.972 78.2475 141.972 77.3671 141.992C76.9263 142.003 76.7471 141.839 76.7574 141.392C76.7767 140.511 76.7458 139.63 76.769 138.749C76.7806 138.304 76.6182 138.141 76.1722 138.143C74.0028 138.157 71.8333 138.159 69.6639 138.143C69.1999 138.139 69.071 138.331 69.0813 138.762C69.1019 139.621 69.071 140.48 69.0942 141.34C69.1058 141.794 68.9769 142.01 68.478 141.995C67.5976 141.967 66.7159 141.97 65.8368 141.995C65.3831 142.006 65.2323 141.826 65.2426 141.386C65.2645 140.506 65.2335 139.624 65.2542 138.744C65.2645 138.295 65.0853 138.134 64.6445 138.145C63.5926 138.169 62.5395 138.165 61.4876 138.172L61.5057 138.188C61.4748 137.914 61.418 137.639 61.418 137.363C61.4116 135.301 61.4296 133.24 61.4064 131.177C61.4013 130.655 61.5521 130.44 62.0986 130.462C62.9352 130.497 63.7744 130.453 64.6109 130.479C65.0711 130.493 65.2748 130.355 65.2567 129.861C65.2271 129.003 65.2271 128.143 65.2567 127.285C65.2748 126.761 65.0492 126.626 64.5658 126.63C62.5047 126.646 60.4423 126.618 58.3811 126.648C57.7804 126.657 57.5626 126.501 57.5651 125.861C57.5896 121.244 57.5858 116.626 57.5651 112.008C57.5626 111.432 57.7572 111.256 58.3102 111.281C59.1249 111.317 59.9434 111.312 60.7581 111.281C61.2685 111.262 61.4258 111.458 61.4206 111.957C61.4 114.04 61.4309 116.124 61.4 118.206C61.391 118.807 61.5933 118.995 62.1799 118.972C63.1879 118.932 64.1985 118.96 65.2078 118.96L65.1936 118.941C65.2116 120.009 65.258 121.079 65.2374 122.148C65.2271 122.669 65.4217 122.821 65.9116 122.805C66.7675 122.779 67.6247 122.778 68.4806 122.808C68.9794 122.825 69.0993 122.604 69.089 122.153C69.0658 121.083 69.08 120.012 69.0787 118.941C69.0748 118.942 69.0568 118.961 69.0568 118.961Z" fill="#EEEEEE"/>
<path d="M49.8412 122.803C50.8944 122.803 51.9475 122.828 52.9994 122.794C53.5549 122.776 53.7521 122.946 53.7444 123.523C53.7148 125.586 53.7509 127.648 53.7225 129.709C53.7148 130.294 53.8849 130.517 54.4895 130.484C55.3248 130.439 56.1652 130.485 57.0018 130.468C57.4091 130.461 57.5844 130.606 57.5754 131.029C57.5573 131.932 57.5548 132.834 57.578 133.736C57.5896 134.201 57.3782 134.319 56.9528 134.316C54.8903 134.303 52.8279 134.311 50.7655 134.312C49.9018 134.314 49.8993 134.315 49.898 135.151C49.8954 137.149 49.898 139.147 49.8967 141.145C49.8954 141.986 49.8928 141.987 49.0266 141.988C48.2957 141.99 47.5635 141.958 46.8365 141.997C46.2591 142.03 46.018 141.853 46.0502 141.24C46.0953 140.404 46.0489 139.564 46.0683 138.727C46.0773 138.319 45.9381 138.139 45.5127 138.147C44.5898 138.164 43.6655 138.157 42.7413 138.146C42.3494 138.141 42.2128 138.322 42.218 138.696C42.2296 139.577 42.2051 140.458 42.2283 141.339C42.2399 141.791 42.1148 141.999 41.616 141.995C39.4685 141.976 37.3197 141.977 35.1709 141.996C34.6952 142 34.5328 141.838 34.538 141.362C34.5573 139.235 34.5586 137.108 34.538 134.981C34.5328 134.486 34.6785 134.281 35.1954 134.303C35.9456 134.337 36.6984 134.312 37.4512 134.312C38.3844 134.312 38.3844 134.311 38.3844 133.406C38.3844 131.386 38.3973 129.368 38.3767 127.348C38.3715 126.832 38.5133 126.605 39.065 126.631C39.8578 126.667 40.657 126.6 41.4484 126.649C42.0904 126.689 42.2438 126.436 42.2334 125.833C42.2012 123.815 42.2205 121.795 42.2244 119.775C42.2244 119.496 42.2515 119.218 42.2657 118.941L42.2463 118.959C44.787 118.959 47.3264 118.959 49.867 118.959L49.8464 118.939C49.8503 120.232 49.8541 121.525 49.858 122.818C48.8307 122.813 47.802 122.834 46.776 122.791C46.201 122.768 46.0438 122.983 46.0502 123.535C46.076 125.59 46.0631 127.646 46.0541 129.702C46.0528 129.925 45.9793 130.146 45.942 130.372C45.7383 130.407 45.5333 130.463 45.3271 130.466C44.4918 130.477 43.6565 130.487 42.8212 130.466C42.3804 130.454 42.2051 130.615 42.2167 131.063C42.2386 131.941 42.2425 132.82 42.2154 133.696C42.1999 134.187 42.4087 134.333 42.8663 134.314C43.4645 134.289 44.0651 134.315 44.6645 134.308C46.2926 134.29 46.0425 134.493 46.0477 132.9C46.0515 132.051 45.9677 131.203 45.9226 130.355C46.5169 130.394 47.1111 130.465 47.7053 130.461C48.4001 130.457 49.3592 130.642 49.7175 130.274C50.0836 129.897 49.8902 128.949 49.8902 128.25C49.8902 126.436 49.8593 124.62 49.8412 122.803Z" fill="#EEEEEE"/>
<path d="M7.71994 69.0556C6.62685 69.0646 5.53375 69.0891 4.44066 69.0749C3.9908 69.0697 3.83482 69.236 3.84642 69.6782C3.86834 70.5779 3.84127 71.4789 3.85416 72.3799C3.85931 72.7563 3.72526 72.9278 3.3321 72.9213C2.38854 72.9072 1.44498 72.9097 0.501412 72.9188C0.144352 72.9226 0.00771604 72.7641 0.00900506 72.4135C0.0154502 70.2054 0.0206063 67.996 0.00771604 65.7879C0.00513799 65.3535 0.197202 65.2336 0.592932 65.24C1.45013 65.2555 2.30991 65.2181 3.16582 65.2542C3.71494 65.2774 3.87478 65.0596 3.8606 64.5401C3.83225 63.5115 3.85158 62.4815 3.85158 61.4529L3.83482 61.4722C4.88409 61.4516 5.93464 61.4065 6.98391 61.4207C7.50209 61.4284 7.73025 61.284 7.69673 60.7336C7.65935 60.1136 7.689 59.4884 7.69029 58.8658C7.69931 55.8598 7.70962 52.8551 7.71994 49.8491L7.70189 49.8672C8.64546 49.8775 9.58902 49.8917 10.5326 49.8968C11.5264 49.9033 11.5277 49.8994 11.5277 50.8636C11.529 54.1454 11.5367 57.4286 11.52 60.7104C11.5174 61.2376 11.6863 61.4374 12.2225 61.4168C13.0797 61.3833 13.9382 61.3975 14.7967 61.4129C15.2079 61.4207 15.3754 61.2583 15.3677 60.8432C15.3522 59.9422 15.3703 59.0411 15.36 58.1401C15.3561 57.7882 15.4334 57.5665 15.8537 57.5704C18.2551 57.5884 20.6579 57.5936 23.0593 57.6039L23.0413 57.5858C23.04 58.6377 23.067 59.6908 23.0271 60.7414C23.0065 61.2982 23.2204 61.44 23.7373 61.4194C24.5726 61.3846 25.4118 61.422 26.2483 61.4039C26.666 61.3949 26.8903 61.5083 26.8787 61.9788C26.8568 62.8799 26.8606 63.7822 26.8787 64.6832C26.8877 65.1047 26.7111 65.2542 26.3038 65.2465C25.4234 65.231 24.543 65.2246 23.6639 65.2491C23.1869 65.262 23.0168 65.0789 23.0297 64.6084C23.0541 63.7293 23.0206 62.8476 23.0413 61.9685C23.0503 61.5522 22.8969 61.3936 22.4792 61.4052C21.6852 61.4258 20.8912 61.4078 20.0971 61.4091C19.2025 61.4104 19.2 61.4117 19.2 62.2908C19.1987 65.5533 19.1845 68.8171 19.2129 72.0796C19.218 72.7061 19.0788 72.969 18.3956 72.9342C17.3683 72.8801 16.3358 72.9252 15.3058 72.9278L15.3239 72.9445C15.3355 70.5392 15.3432 68.1339 15.3626 65.7299C15.3664 65.2439 15.0583 65.2452 14.7155 65.2465C12.5886 65.2491 10.463 65.2568 8.33609 65.2388C7.87462 65.2349 7.67095 65.3638 7.68384 65.8562C7.7122 66.93 7.69931 68.0037 7.70318 69.0775L7.71994 69.0556Z" fill="#EEEEEE"/>
<path d="M69.0271 92.1716C69.0297 91.6147 69.0451 91.0579 69.0297 90.501C69.0181 90.0563 69.1637 89.8269 69.6523 89.8294C73.1275 89.8397 76.6014 89.8398 80.0766 89.832C80.4994 89.8307 80.6592 90.0228 80.6399 90.4172C80.6386 90.4391 80.6412 90.4598 80.6399 90.4817C80.5716 92.4449 80.8539 92.0775 79.0557 92.1136C78.4988 92.1252 77.9394 92.1381 77.3825 92.1084C76.8953 92.0826 76.7406 92.2953 76.7509 92.7542C76.7702 93.6114 76.7354 94.4712 76.7625 95.3271C76.778 95.8144 76.5872 95.9626 76.1193 95.9484C75.2402 95.9214 74.3611 95.9575 73.4819 95.9381C73.0695 95.9291 72.9032 96.0748 72.9122 96.495C72.9315 97.396 72.929 98.297 72.9148 99.1968C72.9083 99.5976 73.0424 99.782 73.4691 99.7781C75.828 99.7588 78.1869 99.7549 80.5458 99.7472L80.5265 99.7317C80.5458 100.888 80.5845 102.046 80.5574 103.2C80.5535 103.341 80.199 103.582 79.998 103.592C79.0982 103.636 78.1959 103.622 77.2949 103.612C76.9185 103.608 76.7458 103.751 76.7535 104.14C76.7754 105.255 76.7818 106.37 76.7934 107.485L76.8128 107.47C75.5225 107.474 74.2322 107.477 72.9418 107.481L72.9599 107.499C72.947 106.493 72.929 105.486 72.9199 104.479C72.9122 103.61 72.9161 103.612 72.0202 103.61C71.2262 103.61 70.4334 103.596 69.6407 103.616C69.2243 103.625 69.0683 103.46 69.0774 103.047C69.0954 102.19 69.0554 101.331 69.0877 100.474C69.107 99.9508 68.9446 99.7498 68.398 99.7614C67.3282 99.7846 66.2557 99.7433 65.1845 99.7278L65.2051 99.7485C65.2154 97.3689 65.2232 94.9894 65.2374 92.6111C65.2399 92.2618 65.0981 92.1059 64.7411 92.1097C63.7975 92.12 62.854 92.12 61.9104 92.1097C61.5533 92.1059 61.4064 92.2657 61.409 92.6124C61.4257 94.9907 61.4373 97.3702 61.4502 99.7485L61.4695 99.7304C60.1741 99.7304 58.8786 99.7304 57.5831 99.7304L57.5999 99.7472C57.5883 99.4687 57.569 99.1903 57.569 98.9119C57.5664 96.8727 57.5548 94.8347 57.5767 92.7955C57.5831 92.2618 57.4014 92.0736 56.869 92.0943C56.0118 92.1265 55.152 92.0878 54.2948 92.1058C53.8798 92.1149 53.7199 91.9563 53.7251 91.5413C53.7406 90.4469 53.7315 89.3525 53.7315 88.2581L53.7135 88.2749C54.001 88.4412 54.3026 88.5881 54.5733 88.7789C55.6883 89.5626 56.9116 89.8771 58.2792 89.8423C60.361 89.7882 62.4466 89.8475 64.5297 89.8178C65.1291 89.8088 65.3456 90.0112 65.2967 90.599C65.2593 91.063 65.2889 91.5322 65.2889 92.1484C66.5689 92.1484 67.8051 92.1484 69.0438 92.1471C69.0554 93.2157 69.0709 94.2843 69.0748 95.3529C69.0761 95.6855 69.1134 95.9446 69.5478 95.9381C70.5327 95.9252 71.5175 95.9497 72.501 95.9188C72.6402 95.9149 72.8864 95.6945 72.8903 95.5682C72.9212 94.5627 72.9238 93.556 72.8864 92.5519C72.8813 92.401 72.6273 92.1342 72.4855 92.1316C71.337 92.12 70.1821 92.1535 69.0271 92.1716Z" fill="#EEEEEE"/>
<path d="M134.28 61.458C134.29 63.7332 134.32 66.0083 134.299 68.2834C134.294 68.8931 134.462 69.1316 135.095 69.0916C135.864 69.0426 136.642 69.0517 137.412 69.089C137.964 69.1161 138.188 68.9485 138.159 68.3659C138.117 67.5306 138.164 66.6915 138.145 65.8549C138.134 65.4244 138.272 65.2284 138.732 65.24C139.633 65.2632 140.536 65.2581 141.438 65.24C141.863 65.231 141.995 65.4128 141.994 65.8188C141.985 69.276 141.982 72.7331 141.995 76.189C141.996 76.6659 141.781 76.7626 141.366 76.7613C140.293 76.7574 139.221 76.7832 138.147 76.7961L138.166 76.8103C138.16 75.7185 138.135 74.6267 138.156 73.5349C138.165 73.0528 137.98 72.8955 137.514 72.9097C136.68 72.9355 135.844 72.9406 135.01 72.9084C134.489 72.8891 134.288 73.0554 134.301 73.5993C134.328 74.6679 134.292 75.7391 134.281 76.809L134.301 76.7948C133.315 76.7806 132.328 76.7626 131.342 76.7549C130.476 76.7484 130.472 76.7536 130.47 75.8577C130.467 75.0856 130.452 74.3122 130.481 73.54C130.499 73.0567 130.302 72.8994 129.837 72.9097C128.786 72.9329 127.734 72.92 126.683 72.9213L126.697 72.9406C126.677 71.8914 126.626 70.8408 126.652 69.7929C126.666 69.2141 126.457 69.0452 125.904 69.0697C125.069 69.1071 124.231 69.0607 123.396 69.0826C122.947 69.0942 122.786 68.9215 122.796 68.4793C122.818 67.6002 122.818 66.7198 122.795 65.842C122.783 65.3999 122.943 65.2258 123.392 65.2374C124.228 65.2594 125.066 65.2168 125.9 65.2529C126.451 65.2761 126.679 65.1085 126.649 64.5272C126.608 63.7357 126.666 62.9391 126.63 62.1477C126.605 61.5985 126.778 61.3794 127.357 61.3974C128.535 61.4335 129.716 61.4 130.895 61.4116C132.029 61.4219 133.164 61.4516 134.298 61.4722L134.28 61.458Z" fill="#EEEEEE"/>
<path d="M118.924 57.6271C119.996 57.609 121.069 57.5665 122.14 57.5819C122.638 57.5884 122.833 57.4453 122.81 56.9258C122.774 56.1331 122.85 55.3326 122.79 54.5437C122.737 53.8605 123 53.6865 123.634 53.7226C124.447 53.769 125.266 53.7175 126.082 53.7394C126.498 53.7497 126.655 53.6027 126.645 53.1799C126.623 52.2995 126.655 51.4178 126.632 50.5387C126.621 50.0773 126.768 49.8736 127.256 49.8891C128.137 49.9161 129.018 49.8723 129.897 49.9187C130.095 49.929 130.44 50.1804 130.444 50.3273C130.471 51.463 130.431 52.5999 130.413 53.7355L130.432 53.7187C129.424 53.7239 128.415 53.7664 127.41 53.72C126.769 53.6904 126.595 53.9263 126.628 54.5308C126.673 55.3429 126.622 56.1602 126.645 56.9748C126.657 57.417 126.501 57.5897 126.05 57.5768C125.214 57.5536 124.375 57.6077 123.541 57.5587C122.925 57.5227 122.764 57.7611 122.792 58.3347C122.832 59.1481 122.785 59.9654 122.809 60.7787C122.823 61.2466 122.663 61.4335 122.18 61.4155C121.387 61.3859 120.593 61.4052 119.799 61.4078C118.965 61.4091 118.965 61.4103 118.964 62.2624C118.956 65.8227 118.95 69.3829 118.942 72.9432L118.96 72.9252C117.657 72.9394 116.354 72.9535 115.05 72.9677C115.074 71.7934 115.108 70.6191 115.098 69.4461C115.097 69.3237 114.831 69.1045 114.684 69.1007C113.701 69.0697 112.716 69.071 111.732 69.1019C111.585 69.1071 111.324 69.3237 111.32 69.4474C111.288 70.5753 111.301 71.7032 111.301 72.9497C112.601 72.9497 113.835 72.9497 115.068 72.9497C115.071 74.2374 115.072 75.5239 115.075 76.8116L115.093 76.7935C113.841 76.7935 112.591 76.7935 111.339 76.7935L111.361 76.8167C111.338 75.7456 111.285 74.6744 111.303 73.6032C111.312 73.0644 111.134 72.8878 110.603 72.9097C109.746 72.9445 108.886 72.9084 108.028 72.9239C107.624 72.9316 107.446 72.7911 107.449 72.3658C107.462 70.1757 107.462 67.9856 107.45 65.7956C107.448 65.3651 107.635 65.2349 108.034 65.2426C108.871 65.2581 109.711 65.2143 110.545 65.2581C111.155 65.2903 111.333 65.0557 111.303 64.4744C111.262 63.661 111.313 62.8425 111.285 62.0278C111.268 61.5431 111.459 61.3987 111.926 61.4026C114.029 61.4194 116.134 61.3923 118.238 61.4207C118.79 61.4284 119.005 61.2853 118.977 60.7027C118.928 59.674 118.95 58.6428 118.942 57.6116C118.941 57.609 118.924 57.6271 118.924 57.6271Z" fill="#EEEEEE"/>
<path d="M134.301 53.7355C134.304 52.6836 134.334 51.6305 134.302 50.58C134.285 50.0347 134.489 49.871 135.011 49.8903C135.868 49.9226 136.729 49.8826 137.588 49.9006C138.008 49.9097 138.155 49.7382 138.153 49.3283C138.144 45.8712 138.143 42.414 138.155 38.9568C138.156 38.4915 137.955 38.3703 137.531 38.3794C136.672 38.3987 135.813 38.3678 134.954 38.391C134.497 38.4038 134.298 38.2711 134.303 37.7761C134.324 35.6286 134.324 33.4811 134.304 31.3336C134.301 30.854 134.467 30.6981 134.94 30.7019C137.066 30.72 139.192 30.7251 141.318 30.6968C141.881 30.6891 141.996 30.9172 141.995 31.4212C141.981 35.6299 141.987 39.8385 141.987 44.0472C141.987 48.2778 141.975 52.5083 142.001 56.7376C142.005 57.3744 141.849 57.6167 141.178 57.5832C140.171 57.5329 139.16 57.5793 138.151 57.5845L138.168 57.6025C138.161 56.5107 138.139 55.4177 138.155 54.3259C138.161 53.8799 138.004 53.7187 137.558 53.7252C136.466 53.7419 135.373 53.7213 134.281 53.7161L134.301 53.7355Z" fill="#EEEEEE"/>
<path d="M46.1701 23.0181C44.863 23.0246 43.5573 23.0323 42.2502 23.0388L42.2657 23.0581C42.2515 21.9882 42.2102 20.9183 42.2321 19.8497C42.2437 19.329 42.0478 19.1769 41.558 19.1923C40.7446 19.2194 39.9299 19.2284 39.1179 19.1897C38.5662 19.164 38.3522 19.3302 38.3728 19.9103C38.4115 20.9583 38.3805 22.0088 38.3793 23.0581L38.396 23.0401C37.3235 23.0388 36.2498 23.0542 35.1773 23.0297C34.7055 23.0194 34.5251 23.1831 34.5405 23.6614C34.5676 24.5405 34.5367 25.4209 34.5521 26.3013C34.5586 26.7073 34.4129 26.8865 33.9901 26.8788C33.0891 26.862 32.1868 26.8633 31.2858 26.8788C30.8862 26.8865 30.7031 26.7589 30.7031 26.3283C30.7134 21.586 30.7134 16.8424 30.7057 12.1001C30.7057 11.6915 30.8449 11.5162 31.2664 11.5239C32.1675 11.5407 33.0698 11.542 33.9708 11.5213C34.4374 11.511 34.5612 11.7302 34.5521 12.1517C34.5354 12.9663 34.5792 13.7836 34.538 14.597C34.5083 15.1847 34.7017 15.3781 35.3011 15.3742C38.5842 15.3497 41.8673 15.3613 45.1518 15.3626C46.0618 15.3626 46.0644 15.3665 46.0644 16.2894C46.0657 18.2642 46.0605 20.2377 46.067 22.2125C46.0683 22.4871 46.1237 22.7603 46.1533 23.0349C46.1521 23.0349 46.1701 23.0181 46.1701 23.0181Z" fill="#EEEEEE"/>
<path d="M95.8413 23.0245C95.8748 23.2746 95.9354 23.526 95.9367 23.776C95.9444 25.8565 95.956 27.9383 95.9316 30.0188C95.9251 30.5589 96.1107 30.72 96.6366 30.7174C99.9623 30.6994 103.288 30.7084 106.612 30.7097C107.45 30.7097 107.45 30.7123 107.453 31.5733C107.454 32.3455 107.431 33.1189 107.463 33.8897C107.485 34.4015 107.288 34.5587 106.79 34.5536C104.71 34.5342 102.628 34.5626 100.548 34.5342C99.9739 34.5265 99.7329 34.676 99.7677 35.2883C99.8141 36.1004 99.7612 36.9189 99.7844 37.7336C99.7973 38.186 99.6671 38.4039 99.1696 38.3884C98.2698 38.36 97.3675 38.3729 96.4665 38.3884C96.0811 38.3948 95.9303 38.244 95.9367 37.856C95.9522 36.9769 95.9199 36.0965 95.9483 35.2174C95.9638 34.7211 95.8014 34.5291 95.287 34.5381C94.2365 34.5587 93.1859 34.5239 92.1354 34.5123L92.1534 34.5304C92.1367 33.503 92.0928 32.4744 92.1135 31.447C92.1251 30.9005 91.9755 30.662 91.3903 30.6981C90.7071 30.7419 90.0175 30.7084 89.3318 30.7084C88.2683 30.7084 88.2683 30.7071 88.2657 29.6127C88.2644 28.8831 88.2477 28.1536 88.2696 27.424C88.2825 27.0012 88.1136 26.8542 87.7024 26.8632C86.8014 26.8813 85.9004 26.8568 84.9993 26.8761C84.6036 26.8852 84.4077 26.7833 84.4206 26.3399C84.4464 25.4183 84.4373 24.4953 84.4257 23.5724C84.4206 23.1947 84.5611 23.0258 84.9517 23.031C85.8746 23.0439 86.7975 23.0477 87.7192 23.0284C88.151 23.0194 88.2761 23.2114 88.2696 23.611C88.2541 24.5121 88.2812 25.4131 88.2606 26.3141C88.2516 26.7318 88.4024 26.8864 88.8213 26.8774C89.7223 26.8568 90.6234 26.8555 91.5244 26.88C91.9846 26.8929 92.1212 26.6957 92.1109 26.2651C92.0903 25.386 92.1199 24.5056 92.098 23.6265C92.0864 23.1766 92.2682 23.0181 92.7064 23.0271C93.757 23.0465 94.8088 23.0374 95.8594 23.04C95.8594 23.0413 95.8413 23.0245 95.8413 23.0245Z" fill="#EEEEEE"/>
<path d="M0.0128158 88.2297C0.0128158 85.9533 0.0308621 83.6769 -7.44054e-05 81.4005C-0.00780854 80.8024 0.135273 80.5678 0.779784 80.5794C2.84093 80.6155 4.90337 80.6103 6.96451 80.582C7.5304 80.5742 7.70184 80.7547 7.70055 81.318C7.68121 85.9572 7.68379 90.5951 7.69668 95.2343C7.69797 95.7396 7.58067 95.9639 7.01865 95.9574C4.91497 95.9291 2.80999 95.9329 0.705021 95.9561C0.170077 95.9626 -0.00136343 95.7821 0.00379266 95.2523C0.025706 92.9115 0.0128158 90.5693 0.0128158 88.2297Z" fill="#EEEEEE"/>
<path d="M122.828 42.2696C122.819 44.546 122.791 46.8212 122.813 49.0976C122.818 49.706 122.65 49.9483 122.018 49.9071C121.291 49.8594 120.558 49.8968 119.827 49.8994C118.966 49.9019 118.965 49.9019 118.964 50.7359C118.963 52.7765 118.964 54.8157 118.961 56.8562C118.961 57.1127 118.937 57.3692 118.924 57.627C118.924 57.627 118.941 57.609 118.939 57.6103C116.414 57.6103 113.889 57.6103 111.365 57.6116C111.366 57.6129 111.386 57.6309 111.387 57.6322C111.36 56.436 111.319 55.2398 111.33 54.0436C111.332 53.9392 111.668 53.7561 111.855 53.7497C112.734 53.7174 113.616 53.7161 114.496 53.7406C114.972 53.7535 115.135 53.5782 115.132 53.1039C115.115 50.9989 115.141 48.8939 115.114 46.7889C115.106 46.2269 115.28 46.0246 115.848 46.0503C116.705 46.0877 117.567 46.0465 118.425 46.0606C118.809 46.0671 118.97 45.9176 118.965 45.5321C118.952 44.5873 118.95 43.6424 118.963 42.6976C118.968 42.3199 118.787 42.2206 118.448 42.2245C117.546 42.2348 116.644 42.2142 115.743 42.231C115.322 42.2387 115.105 42.1253 115.117 41.6535C115.142 40.7525 115.138 39.8488 115.12 38.9478C115.112 38.5289 115.28 38.3755 115.691 38.3819C116.593 38.3987 117.496 38.4 118.397 38.3819C118.816 38.3729 118.973 38.5392 118.965 38.9504C118.95 39.7883 119.003 40.6287 118.947 41.4627C118.905 42.1124 119.158 42.2567 119.758 42.24C120.785 42.2116 121.815 42.2683 122.844 42.2903L122.828 42.2696Z" fill="#EEEEEE"/>
<path d="M80.5226 26.929C81.6802 26.9122 82.839 26.8981 83.9965 26.8749C84.4013 26.8671 84.4296 27.1262 84.4283 27.4304C84.4245 28.3972 84.4283 29.3627 84.4283 30.3294C84.4283 32.7128 84.4296 35.0962 84.4283 37.4809C84.4283 38.3807 84.4245 38.382 83.4938 38.3833C82.7204 38.3845 81.947 38.4013 81.1749 38.3781C80.7224 38.3652 80.5716 38.547 80.5832 38.9865C80.6064 39.8669 80.5755 40.7473 80.5961 41.6277C80.6064 42.0776 80.4259 42.2361 79.9877 42.2271C79.1073 42.2078 78.2269 42.2052 77.3465 42.2284C76.8927 42.24 76.7419 42.0557 76.7522 41.6187C76.7716 40.7383 76.7419 39.8579 76.7625 38.9775C76.7728 38.5315 76.6027 38.3652 76.1593 38.3768C75.2789 38.3987 74.3985 38.3678 73.5181 38.391C73.0734 38.4026 72.9019 38.2428 72.9135 37.7942C72.9406 36.6998 72.9354 35.6041 72.9432 34.5097L72.9251 34.5278C75.2879 34.5342 77.6494 34.5381 80.0122 34.5471C80.3576 34.5484 80.5935 34.4724 80.5909 34.0534C80.5716 31.6713 80.5613 29.2879 80.5471 26.9058L80.5226 26.929Z" fill="#EEEEEE"/>
<path d="M88.2658 130.409C88.2658 129.42 88.2967 128.432 88.2555 127.446C88.231 126.844 88.4011 126.59 89.0443 126.627C89.8796 126.676 90.7201 126.622 91.5567 126.645C91.9807 126.658 92.1187 126.502 92.1084 126.084C92.0864 125.183 92.1161 124.28 92.1019 123.379C92.0955 122.973 92.236 122.795 92.6601 122.799C95.0228 122.818 97.3843 122.821 99.7471 122.83L99.7303 122.813C99.7458 123.069 99.7768 123.326 99.7768 123.582C99.7793 128.198 99.769 132.814 99.7884 137.43C99.7909 138.001 99.6105 138.19 99.0497 138.163C98.257 138.124 97.4604 138.121 96.6676 138.161C96.1069 138.188 95.9264 138.004 95.9303 137.433C95.9548 134.169 95.9432 130.907 95.9406 127.643C95.9406 126.643 95.9368 126.643 94.9661 126.641C94.2572 126.64 93.5482 126.67 92.8405 126.632C92.2914 126.603 92.0645 126.768 92.0942 127.352C92.1367 128.209 92.1251 129.07 92.0839 129.927C92.0748 130.113 91.8467 130.443 91.7152 130.444C90.5602 130.461 89.4053 130.418 88.249 130.394L88.2658 130.409Z" fill="#EEEEEE"/>
<path d="M126.682 72.9239C126.668 75.1707 126.653 77.4187 126.641 79.6655C126.636 80.5923 126.639 80.5923 125.729 80.5923C122.474 80.5923 119.219 80.5923 115.964 80.5871C115.666 80.5871 115.369 80.5459 115.071 80.524L115.093 80.5459C115.093 79.2942 115.093 78.0439 115.093 76.7923L115.075 76.8103C116.163 76.7923 117.252 76.7536 118.34 76.7639C118.818 76.7691 118.982 76.5976 118.972 76.1284C118.948 75.0598 118.962 73.9912 118.961 72.9226L118.943 72.9407C121.528 72.9407 124.112 72.9407 126.697 72.9407L126.682 72.9239Z" fill="#EEEEEE"/>
<path d="M19.1884 80.5253C18.6753 80.5472 18.1623 80.5859 17.6493 80.5884C15.8885 80.5962 14.1264 80.5665 12.3669 80.6039C11.7327 80.6168 11.4697 80.4492 11.5148 79.7776C11.5677 78.9862 11.5097 78.1883 11.5329 77.3955C11.547 76.9302 11.3872 76.7368 10.9025 76.751C10.0234 76.7768 9.14173 76.7484 8.26133 76.76C7.90813 76.7652 7.68385 76.6853 7.68642 76.2689C7.70318 73.8649 7.70963 71.4596 7.71994 69.0555L7.7006 69.0749C8.73053 69.0775 9.76175 69.1045 10.7904 69.071C11.3395 69.053 11.569 69.2051 11.5367 69.7903C11.4929 70.6037 11.5535 71.4222 11.5174 72.2356C11.4929 72.7834 11.712 72.9394 12.2315 72.9278C13.2602 72.9046 14.2914 72.9342 15.3213 72.9432L15.3033 72.9265C15.3226 73.9757 15.3703 75.0263 15.351 76.0743C15.3406 76.6182 15.5366 76.7871 16.0612 76.7665C16.9184 76.733 17.7782 76.7691 18.6367 76.7523C19.0543 76.7446 19.2103 76.9173 19.2026 77.3272C19.1806 78.3997 19.1819 79.4721 19.1729 80.5446L19.1884 80.5253Z" fill="#EEEEEE"/>
<path d="M69.0361 7.74578C70.1086 7.72773 71.1811 7.68649 72.2522 7.70066C72.7498 7.70711 72.9316 7.555 72.9264 7.04068C72.9045 4.97954 72.9174 2.9171 72.92 0.855955C72.9212 0.0180899 72.9225 0.0168009 73.7849 0.0155119C74.5789 0.0142229 75.3743 0.0258241 76.1683 0.00906678C76.5576 0.00133264 76.7625 0.103165 76.7612 0.546589C76.7509 4.04757 76.7522 7.54856 76.7612 11.0483C76.7625 11.4143 76.6182 11.5291 76.2637 11.5278C74.0517 11.5187 71.8398 11.5175 69.6278 11.5316C69.1947 11.5342 69.0748 11.346 69.0774 10.9477C69.0838 9.87396 69.0619 8.80149 69.0529 7.72773C69.0529 7.72645 69.0361 7.74578 69.0361 7.74578Z" fill="#EEEEEE"/>
<path d="M30.7109 3.90449C30.7109 2.81011 30.7238 1.71573 30.7045 0.621346C30.6967 0.185657 30.8372 0.00648256 31.2923 0.0090606C33.481 0.0245289 35.6698 0.0219508 37.8585 0.0103496C38.2517 0.00777158 38.3883 0.162454 38.387 0.542716C38.378 2.75339 38.3767 4.96406 38.3857 7.17345C38.387 7.57562 38.2053 7.68906 37.8366 7.68777C35.6479 7.68003 33.4591 7.67746 31.2703 7.69035C30.8514 7.69292 30.6993 7.53695 30.7058 7.12318C30.7212 6.05071 30.7109 4.97695 30.7109 3.90449Z" fill="#EEEEEE"/>
<path d="M84.4142 7.71868C84.418 6.66813 84.4528 5.61757 84.4155 4.56831C84.3948 3.9934 84.6037 3.83872 85.1566 3.84001C90.0227 3.85677 94.8875 3.85032 99.7535 3.84903L99.7355 3.83228C99.7355 5.12774 99.7355 6.42192 99.7355 7.71739L99.7548 7.70192C94.6348 7.70063 89.5161 7.70063 84.3961 7.69934L84.4142 7.71868Z" fill="#EEEEEE"/>
<path d="M49.8439 7.69681C49.8594 8.83244 49.8916 9.96807 49.8723 11.1024C49.8697 11.2455 49.5977 11.5033 49.4469 11.5059C47.195 11.5317 44.9417 11.5213 42.6885 11.5278C42.1961 11.5291 42.2219 11.1991 42.2219 10.8678C42.2219 9.13021 42.2206 7.3926 42.2206 5.655C42.2206 4.00247 42.2387 2.35124 42.2129 0.69871C42.2039 0.158609 42.3998 -0.0154089 42.9244 0.00521545C43.7597 0.03873 44.5976 0.0322849 45.4341 0.00650448C45.9111 -0.00767477 46.0722 0.172788 46.0683 0.644571C46.0516 2.74697 46.0787 4.84936 46.0516 6.95176C46.0451 7.50475 46.1947 7.71744 46.7734 7.69939C47.8021 7.66717 48.832 7.70713 49.8607 7.71615C49.8619 7.71486 49.8439 7.69681 49.8439 7.69681Z" fill="#EEEEEE"/>
<path d="M126.534 38.3794C126.563 37.2051 126.609 36.0321 126.59 34.8591C126.588 34.7521 126.175 34.5639 125.952 34.5613C123.889 34.5381 121.827 34.5291 119.764 34.56C119.157 34.569 118.914 34.404 118.951 33.7673C119 32.9539 118.977 32.1354 118.956 31.3194C118.946 30.8889 119.081 30.702 119.543 30.7033C122.98 30.7174 126.417 30.7187 129.855 30.7045C130.343 30.702 130.48 30.894 130.477 31.3542C130.462 33.4811 130.462 35.608 130.479 37.7349C130.483 38.1886 130.36 38.4052 129.864 38.391C128.748 38.36 127.63 38.3691 126.515 38.3626L126.534 38.3794Z" fill="#EEEEEE"/>
<path d="M115.071 80.5253C115.088 81.6841 115.12 82.8416 115.103 84.0005C115.101 84.1436 114.84 84.4001 114.691 84.4052C113.705 84.4426 112.716 84.4155 111.727 84.4323C111.317 84.4387 111.286 84.2029 111.288 83.8935C111.294 83.035 111.248 82.1726 111.304 81.3167C111.347 80.6761 111.071 80.5794 110.521 80.5833C107.235 80.6026 103.948 80.5936 100.662 80.5923C99.7793 80.5923 99.778 80.5897 99.7767 79.7003C99.7754 78.905 99.7858 78.1109 99.7742 77.3169C99.769 76.9534 99.8786 76.7562 100.283 76.7575C103.891 76.7665 107.499 76.7652 111.109 76.7703C111.192 76.7703 111.277 76.8013 111.361 76.818L111.339 76.7948C111.325 77.9073 111.293 79.0197 111.316 80.1308C111.32 80.2881 111.598 80.5678 111.756 80.5704C112.867 80.5949 113.98 80.5627 115.093 80.5485L115.071 80.5253Z" fill="#EEEEEE"/>
<path d="M42.267 118.942C41.1726 118.95 40.077 118.972 38.9826 118.956C38.5379 118.95 38.3677 119.107 38.3793 119.554C38.4 120.433 38.3677 121.315 38.3897 122.194C38.4 122.631 38.2543 122.818 37.8006 122.807C36.9215 122.785 36.0398 122.779 35.1606 122.807C34.6695 122.822 34.5406 122.617 34.5419 122.157C34.5509 119.795 34.5355 117.434 34.5277 115.072L34.5123 115.09C36.8725 115.102 39.2314 115.123 41.5916 115.118C42.0595 115.116 42.24 115.259 42.2309 115.743C42.2116 116.815 42.24 117.888 42.2477 118.96L42.267 118.942Z" fill="#EEEEEE"/>
<path d="M138.175 80.5149C139.18 80.5407 140.184 80.6 141.187 80.5794C141.785 80.5665 142.008 80.7212 142.003 81.3657C141.972 84.6901 141.975 88.0157 141.999 91.3414C142.003 91.9202 141.849 92.1496 141.242 92.1174C140.386 92.0723 139.526 92.1007 138.668 92.111C138.328 92.1148 138.148 91.9975 138.15 91.6315C138.166 87.9204 138.178 84.2106 138.191 80.4995C138.192 80.4969 138.175 80.5149 138.175 80.5149Z" fill="#EEEEEE"/>
<path d="M3.82964 103.628C4.9021 103.625 5.97586 103.636 7.04833 103.612C7.50593 103.601 7.70315 103.735 7.69799 104.229C7.67866 106.375 7.67866 108.522 7.6967 110.666C7.70057 111.145 7.533 111.302 7.06122 111.298C4.91499 111.28 2.76877 111.281 0.623838 111.296C0.193304 111.298 -0.0039162 111.173 0.00768501 110.712C0.0308874 109.811 0.0270203 108.91 0.00768501 108.008C-0.00133815 107.583 0.181703 107.444 0.585167 107.45C1.48619 107.466 2.38851 107.441 3.28825 107.458C3.70331 107.466 3.86186 107.311 3.85413 106.893C3.83608 105.799 3.84639 104.705 3.84511 103.61L3.82964 103.628Z" fill="#EEEEEE"/>
<path d="M138.181 107.508C138.17 103.815 138.163 100.124 138.147 96.4305C138.146 96.0683 138.304 95.9368 138.654 95.9394C139.599 95.9484 140.543 95.9484 141.488 95.9381C141.843 95.9342 141.991 96.076 141.991 96.433C141.985 99.9327 141.982 103.432 141.991 106.932C141.992 107.39 141.754 107.454 141.381 107.454C140.309 107.454 139.235 107.475 138.164 107.488C138.164 107.49 138.181 107.508 138.181 107.508Z" fill="#EEEEEE"/>
<path d="M57.5741 30.622C57.5728 31.7177 57.5561 32.8121 57.5754 33.9077C57.5831 34.3692 57.4375 34.5548 56.9502 34.5535C53.515 34.5393 50.0784 34.5419 46.6432 34.5548C46.1933 34.5561 46.0374 34.3924 46.0502 33.949C46.076 33.1124 46.0941 32.2732 46.0515 31.438C46.0232 30.8708 46.2088 30.6981 46.7773 30.7019C50.1274 30.7238 53.4763 30.7135 56.8265 30.7084C57.0817 30.7084 57.3356 30.6658 57.5896 30.6426C57.5896 30.6388 57.5741 30.622 57.5741 30.622Z" fill="#EEEEEE"/>
<path d="M107.497 42.2761C107.482 43.3898 107.473 44.5048 107.453 45.6185C107.445 46.0156 107.685 46.0645 107.999 46.062C108.9 46.0542 109.801 46.0658 110.702 46.0517C111.092 46.0452 111.306 46.1522 111.297 46.593C111.277 47.5147 111.284 48.4376 111.295 49.3606C111.301 49.7408 111.15 49.9007 110.763 49.8994C108.554 49.8916 106.344 49.8942 104.135 49.9007C103.795 49.902 103.618 49.7821 103.619 49.416C103.623 47.1847 103.61 44.9547 103.636 42.7234C103.639 42.5571 103.903 42.2542 104.049 42.2516C105.203 42.2349 106.36 42.2748 107.516 42.298L107.497 42.2761Z" fill="#EEEEEE"/>
<path d="M84.3962 7.70067C84.4065 10.0802 84.4155 12.4597 84.431 14.8393C84.4336 15.2286 84.2557 15.3652 83.8819 15.3639C81.6944 15.3575 79.5069 15.3562 77.3195 15.3665C76.9057 15.3678 76.7458 15.2002 76.7523 14.7903C76.7677 13.8893 76.7703 12.9882 76.751 12.0885C76.742 11.6747 76.8941 11.511 77.3117 11.52C78.1689 11.5381 79.0287 11.5007 79.8846 11.5329C80.4054 11.5523 80.6219 11.3886 80.6 10.842C80.5652 10.0067 80.609 9.16887 80.5845 8.33358C80.5716 7.87855 80.7018 7.66329 81.1981 7.67876C82.2693 7.71227 83.3418 7.70711 84.4129 7.71743C84.4142 7.71872 84.3962 7.70067 84.3962 7.70067Z" fill="#EEEEEE"/>
<path d="M84.4773 118.967C85.5498 118.965 86.6222 118.977 87.6947 118.96C88.0995 118.954 88.2799 119.085 88.2709 119.513C88.2503 120.435 88.2554 121.358 88.267 122.281C88.2722 122.671 88.1033 122.807 87.7244 122.804C85.515 122.794 83.3043 122.795 81.0949 122.801C80.7456 122.803 80.5858 122.678 80.5896 122.314C80.6012 121.371 80.6038 120.426 80.5858 119.482C80.578 119.081 80.7572 118.959 81.1284 118.963C82.246 118.974 83.361 118.967 84.4773 118.967Z" fill="#EEEEEE"/>
<path d="M138.092 141.986C137.019 141.987 135.947 141.976 134.875 141.992C134.463 141.999 134.298 141.849 134.307 141.43C134.326 140.531 134.325 139.628 134.308 138.728C134.301 138.326 134.432 138.145 134.86 138.147C137.048 138.159 139.235 138.157 141.422 138.146C141.834 138.143 142.001 138.292 141.992 138.71C141.974 139.61 141.97 140.513 141.995 141.412C142.008 141.881 141.795 141.997 141.373 141.991C140.28 141.974 139.186 141.985 138.092 141.986Z" fill="#EEEEEE"/>
<path d="M72.9419 107.486C72.9342 108.558 72.9148 109.629 72.9264 110.7C72.9316 111.142 72.7717 111.301 72.3257 111.298C70.1615 111.283 67.9972 111.283 65.8329 111.298C65.3844 111.301 65.2258 111.138 65.2374 110.696C65.2593 109.796 65.249 108.897 65.2426 107.997C65.24 107.673 65.3186 107.453 65.7002 107.456C68.1197 107.474 70.5404 107.489 72.9599 107.505L72.9419 107.486Z" fill="#EEEEEE"/>
<path d="M42.2503 23.0388C42.2412 25.3332 42.2129 27.6277 42.2348 29.9208C42.2412 30.5409 42.0479 30.7561 41.4292 30.72C40.6377 30.6736 39.8424 30.6852 39.0496 30.7162C38.5456 30.7368 38.3729 30.555 38.378 30.051C38.4 27.714 38.3935 25.3758 38.3961 23.0388L38.3793 23.0568C39.6748 23.0568 40.9703 23.0568 42.2657 23.0568L42.2503 23.0388Z" fill="#EEEEEE"/>
<path d="M95.8465 88.2904C94.796 88.2813 93.7454 88.2594 92.6949 88.271C92.2527 88.2762 92.0916 88.1151 92.0955 87.6691C92.1109 85.5241 92.1096 83.3792 92.0967 81.2355C92.0942 80.7831 92.2205 80.5665 92.7155 80.5833C93.6152 80.6129 94.5175 80.6026 95.4173 80.5897C95.8053 80.5846 95.9484 80.7431 95.9458 81.126C95.9368 83.3779 95.9419 85.6298 95.9355 87.8817C95.9355 88.0235 95.8659 88.1653 95.8272 88.3071C95.8285 88.3071 95.8465 88.2904 95.8465 88.2904Z" fill="#EEEEEE"/>
<path d="M92.9114 76.7613C92.0748 76.7613 91.237 76.7523 90.4004 76.7652C89.9969 76.7716 89.8191 76.6195 89.8281 76.1967C89.8487 75.2738 89.8436 74.3508 89.832 73.4279C89.8268 73.0708 89.9802 72.9149 90.3256 72.9161C92.0426 72.9187 93.7596 72.9071 95.4766 72.9419C95.6338 72.9445 95.9136 73.2242 95.9213 73.3854C95.9638 74.3495 95.9368 75.3163 95.9458 76.2818C95.9497 76.6556 95.7589 76.7613 95.4237 76.7574C94.5872 76.7484 93.7493 76.7549 92.9127 76.7549C92.9114 76.7561 92.9114 76.7587 92.9114 76.7613Z" fill="#EEEEEE"/>
<path d="M65.1678 3.87099C66.2815 3.86455 67.3965 3.86326 68.5102 3.84908C68.8583 3.84521 69.0903 3.91869 69.0813 4.33891C69.0568 5.47325 69.0503 6.60888 69.0361 7.74322C69.0361 7.7445 69.0529 7.72517 69.0516 7.72517C67.7613 7.71486 66.471 7.70455 65.1807 7.69294L65.1987 7.71099C65.1949 6.42455 65.191 5.13681 65.1858 3.85037L65.1678 3.87099Z" fill="#EEEEEE"/>
<path d="M138.151 57.5858C138.151 58.6299 138.133 59.674 138.161 60.7169C138.175 61.2338 138.012 61.431 137.472 61.4207C136.408 61.3987 135.345 61.4426 134.28 61.4593L134.299 61.4722C134.299 60.1768 134.301 58.8813 134.301 57.5858L134.283 57.6039C135.578 57.6039 136.874 57.6039 138.168 57.6039L138.151 57.5858Z" fill="#EEEEEE"/>
<path d="M130.412 53.7355C131.707 53.7355 133.004 53.7355 134.299 53.7355L134.281 53.7188C134.281 55.0142 134.281 56.3097 134.281 57.6039L134.299 57.5858C133.378 57.582 132.456 57.5755 131.534 57.5742C130.471 57.5729 130.477 57.5742 130.472 56.4811C130.467 55.5608 130.446 54.6391 130.432 53.7188C130.431 53.7188 130.412 53.7355 130.412 53.7355Z" fill="#EEEEEE"/>
<path d="M65.2038 118.963C65.2167 117.891 65.2489 116.819 65.2348 115.748C65.2283 115.268 65.3998 115.105 65.8728 115.119C66.7519 115.146 67.6311 115.138 68.5102 115.121C68.9175 115.114 69.0941 115.257 69.0851 115.679C69.0619 116.773 69.0644 117.867 69.0567 118.96L69.0748 118.942C67.7793 118.942 66.4838 118.942 65.1884 118.942L65.2038 118.963Z" fill="#EEEEEE"/>
<path d="M88.249 130.391C88.2593 131.687 88.2696 132.983 88.2799 134.28L88.2967 134.262C87.1624 134.277 86.028 134.289 84.8924 134.31C84.5121 134.316 84.4258 134.101 84.4283 133.775C84.4348 132.853 84.4477 131.93 84.4232 131.01C84.4116 130.573 84.5946 130.467 84.9955 130.467C86.086 130.467 87.1765 130.431 88.2671 130.409C88.2658 130.409 88.249 130.391 88.249 130.391Z" fill="#EEEEEE"/>
<path d="M122.809 99.7511C123.903 99.7601 124.996 99.7846 126.091 99.7717C126.514 99.7665 126.655 99.9186 126.645 100.335C126.623 101.214 126.623 102.095 126.646 102.974C126.659 103.431 126.52 103.637 126.028 103.623C124.955 103.594 123.883 103.608 122.81 103.604L122.828 103.621C122.828 102.325 122.828 101.031 122.828 99.7356L122.809 99.7511Z" fill="#EEEEEE"/>
<path d="M88.2928 138.175C88.2941 136.871 88.2941 135.568 88.2954 134.262L88.2787 134.28C89.3279 134.29 90.3759 134.316 91.4239 134.305C91.8931 134.299 92.1367 134.412 92.1122 134.949C92.0748 135.783 92.08 136.62 92.1122 137.454C92.1328 137.976 91.9627 138.178 91.4213 138.161C90.3733 138.129 89.3228 138.156 88.2735 138.157L88.2928 138.175Z" fill="#EEEEEE"/>
<path d="M122.846 42.2877C122.832 41.1379 122.821 39.9881 122.801 38.8383C122.794 38.3974 123.085 38.3832 123.403 38.3832C124.447 38.3845 125.491 38.3807 126.536 38.3794C126.534 38.3794 126.516 38.3626 126.515 38.3613C126.556 39.1824 126.631 40.0048 126.632 40.8272C126.635 42.4527 126.833 42.1962 125.253 42.2232C124.445 42.2374 123.635 42.2529 122.828 42.2684C122.828 42.2696 122.846 42.2877 122.846 42.2877Z" fill="#EEEEEE"/>
<path d="M99.747 122.828C99.7574 121.738 99.7819 120.647 99.7702 119.557C99.7651 119.112 99.9262 118.946 100.37 118.956C101.268 118.977 102.167 118.977 103.065 118.957C103.49 118.948 103.628 119.129 103.621 119.532C103.605 120.431 103.599 121.329 103.622 122.228C103.633 122.69 103.428 122.812 103.003 122.806C101.913 122.791 100.821 122.808 99.7303 122.812C99.729 122.812 99.747 122.828 99.747 122.828Z" fill="#EEEEEE"/>
<path d="M88.2748 138.157C88.2722 139.227 88.2516 140.297 88.2748 141.366C88.2851 141.843 88.1098 142.012 87.638 141.996C86.7834 141.97 85.9262 141.969 85.0715 141.992C84.6152 142.005 84.4064 141.869 84.4219 141.376C84.4502 140.479 84.4386 139.579 84.4258 138.681C84.4206 138.298 84.574 138.142 84.9568 138.148C86.068 138.166 87.1804 138.167 88.2928 138.174C88.2928 138.176 88.2748 138.157 88.2748 138.157Z" fill="#EEEEEE"/>
<path d="M3.8464 103.61C2.79327 103.612 1.74013 103.59 0.688292 103.625C0.140457 103.643 -0.0193818 103.431 0.00124259 102.909C0.0360462 102.073 0.025734 101.233 0.00510966 100.397C-0.00520252 99.9727 0.113388 99.7587 0.581303 99.7703C1.48362 99.7935 2.38593 99.7948 3.28825 99.7755C3.70976 99.7665 3.86186 99.9315 3.85413 100.343C3.83351 101.437 3.8348 102.533 3.82835 103.628C3.82964 103.628 3.8464 103.61 3.8464 103.61Z" fill="#EEEEEE"/>
<path d="M72.9393 118.959C72.9341 117.864 72.9393 116.77 72.9161 115.677C72.9071 115.25 73.0888 115.114 73.4936 115.121C74.3946 115.138 75.2969 115.141 76.1967 115.121C76.6143 115.112 76.7703 115.273 76.7612 115.689C76.7419 116.59 76.7419 117.491 76.7574 118.392C76.7651 118.798 76.6272 118.977 76.2018 118.968C75.1074 118.945 74.0131 118.948 72.92 118.941C72.9213 118.941 72.9393 118.959 72.9393 118.959Z" fill="#EEEEEE"/>
<path d="M122.835 130.403C123.862 130.426 124.891 130.48 125.917 130.461C126.484 130.449 126.676 130.635 126.649 131.201C126.608 132.058 126.628 132.919 126.643 133.777C126.649 134.154 126.523 134.324 126.123 134.316C125.2 134.298 124.276 134.308 123.353 134.314C123.037 134.315 122.797 134.252 122.803 133.862C122.821 132.704 122.835 131.546 122.85 130.386C122.853 130.385 122.835 130.403 122.835 130.403Z" fill="#EEEEEE"/>
<path d="M107.515 42.2954C107.494 41.1405 107.457 39.9855 107.476 38.8305C107.479 38.6797 107.773 38.4129 107.94 38.4052C108.903 38.3639 109.868 38.3639 110.831 38.4065C110.99 38.4129 111.259 38.6939 111.266 38.8563C111.307 39.8192 111.279 40.7834 111.29 41.7476C111.295 42.1781 111.039 42.222 110.702 42.2245C109.633 42.2336 108.564 42.2555 107.495 42.2748C107.497 42.2761 107.515 42.2954 107.515 42.2954Z" fill="#EEEEEE"/>
<path d="M61.4811 138.172C61.4566 139.198 61.4038 140.225 61.4193 141.251C61.4283 141.8 61.2788 142.027 60.6948 141.996C59.8595 141.952 59.0204 141.97 58.1838 141.99C57.7546 142 57.5548 141.863 57.5651 141.403C57.587 140.502 57.5805 139.6 57.5677 138.699C57.5625 138.326 57.6914 138.141 58.0858 138.147C59.2228 138.168 60.3597 138.174 61.4979 138.187C61.4992 138.188 61.4811 138.172 61.4811 138.172Z" fill="#EEEEEE"/>
<path d="M40.2909 38.3845C38.3844 38.3884 38.3844 38.3884 38.3857 36.4691C38.3857 34.5484 38.3857 34.5484 40.2896 34.5484C40.7601 34.5484 41.2318 34.5613 41.7023 34.5445C42.0955 34.5304 42.2308 34.7083 42.2257 35.0846C42.2128 36.005 42.2076 36.9267 42.227 37.8457C42.236 38.2827 42.0323 38.4026 41.6392 38.3871C41.1906 38.3704 40.7394 38.3845 40.2909 38.3845Z" fill="#EEEEEE"/>
<path d="M25.0444 30.711C26.8722 30.7149 26.8825 30.7149 26.8671 32.5711C26.8619 33.2027 27.0127 34.0392 26.6789 34.4028C26.3837 34.725 25.5149 34.5407 24.8987 34.5433C23.0348 34.5523 23.0348 34.5458 23.0361 32.6484C23.0361 32.156 23 31.6584 23.0619 31.1738C23.0838 31.0023 23.3364 30.751 23.5066 30.7303C24.0132 30.6723 24.5314 30.711 25.0444 30.711Z" fill="#EEEEEE"/>
<path d="M49.8413 23.031C49.8581 24.164 49.8916 25.2983 49.8735 26.4314C49.871 26.5796 49.6119 26.8439 49.4649 26.849C48.4595 26.8864 47.4515 26.88 46.446 26.8529C46.3158 26.849 46.0825 26.6402 46.0825 26.5281C46.089 25.3576 46.1341 24.1885 46.1689 23.0181C46.1702 23.0181 46.1521 23.0335 46.1521 23.0335C47.3883 23.0387 48.6232 23.0438 49.8594 23.049L49.8413 23.031Z" fill="#EEEEEE"/>
<path d="M19.1935 99.7304C18.0784 99.7446 16.9634 99.7549 15.8497 99.7743C15.4862 99.7807 15.3573 99.6054 15.3599 99.2612C15.3676 98.2957 15.3457 97.329 15.3818 96.3635C15.387 96.2178 15.6345 95.9665 15.7775 95.9613C16.7636 95.9265 17.7523 95.9562 18.7384 95.9394C19.1342 95.933 19.2038 96.1405 19.1999 96.464C19.187 97.5584 19.1831 98.6528 19.1754 99.7472C19.1754 99.7485 19.1935 99.7304 19.1935 99.7304Z" fill="#EEEEEE"/>
<path d="M46.058 40.2459C46.058 39.8386 46.0838 39.4299 46.0516 39.0252C46.0155 38.5637 46.1573 38.3588 46.6548 38.3755C47.5327 38.4052 48.4118 38.3974 49.2909 38.3794C49.724 38.3704 49.9148 38.5173 49.9032 38.9723C49.88 39.8502 49.8838 40.7293 49.9006 41.6084C49.9096 42.0325 49.782 42.24 49.318 42.2284C48.4182 42.2052 47.5172 42.2104 46.6175 42.2271C46.2024 42.2349 46.0335 42.075 46.0516 41.66C46.0735 41.1895 46.0567 40.7177 46.058 40.2459Z" fill="#EEEEEE"/>
<path d="M130.39 134.256C130.416 135.43 130.457 136.603 130.445 137.776C130.444 137.901 130.145 138.125 129.979 138.132C129.017 138.165 128.051 138.168 127.09 138.125C126.934 138.119 126.668 137.842 126.661 137.681C126.619 136.719 126.652 135.755 126.632 134.792C126.623 134.361 126.858 134.308 127.201 134.308C128.269 134.306 129.339 134.288 130.408 134.276C130.408 134.275 130.39 134.256 130.39 134.256Z" fill="#EEEEEE"/>
<path d="M76.7935 23.0581C77.8659 23.0516 78.9397 23.0233 80.0109 23.0568C80.2068 23.0632 80.5574 23.3159 80.56 23.4603C80.5858 24.6152 80.5432 25.7715 80.5226 26.9277L80.5471 26.9058C79.4746 26.8942 78.4034 26.8813 77.331 26.8736C77.0306 26.871 76.7574 26.8478 76.7625 26.4456C76.778 25.31 76.7947 24.1744 76.8115 23.0388L76.7935 23.0581Z" fill="#EEEEEE"/>
<path d="M65.1807 7.6955C65.2 8.83112 65.2336 9.96546 65.2168 11.1011C65.2142 11.2442 64.9474 11.5007 64.7966 11.5058C63.8105 11.5419 62.8218 11.5407 61.8357 11.502C61.6887 11.4968 61.4361 11.2326 61.4296 11.0805C61.3936 10.0944 61.3897 9.10569 61.4335 8.11958C61.44 7.97006 61.7429 7.71354 61.9156 7.70967C63.0087 7.68003 64.1031 7.70581 65.1975 7.71354C65.1988 7.71354 65.1807 7.6955 65.1807 7.6955Z" fill="#EEEEEE"/>
<path d="M65.1859 3.85161C64.134 3.85161 63.0822 3.84001 62.0303 3.85548C61.6114 3.86192 61.3884 3.74849 61.4013 3.278C61.4245 2.37697 61.4206 1.47465 61.4052 0.573628C61.3974 0.153406 61.5766 0.00516882 61.9839 0.0116139C62.8849 0.0270822 63.7886 -0.00643238 64.6883 0.0322383C64.8752 0.0399724 65.2065 0.270707 65.2091 0.402188C65.2297 1.55715 65.1897 2.71341 65.1678 3.87095L65.1859 3.85161Z" fill="#EEEEEE"/>
<path d="M34.5457 128.596C34.5457 129.025 34.5277 129.455 34.5509 129.882C34.5754 130.336 34.3717 130.487 33.9386 130.478C33.0595 130.459 32.1791 130.454 31.3 130.478C30.8449 130.489 30.6954 130.305 30.7057 129.869C30.7251 128.99 30.7238 128.11 30.7032 127.23C30.6915 126.781 30.8759 126.622 31.3141 126.632C32.1933 126.653 33.0737 126.654 33.9528 126.635C34.4014 126.625 34.5728 126.805 34.5522 127.245C34.529 127.693 34.5457 128.144 34.5457 128.596Z" fill="#EEEEEE"/>
<path d="M76.8128 49.862C76.796 48.7496 76.7599 47.6371 76.7831 46.526C76.7857 46.3687 77.0667 46.0903 77.2291 46.0826C78.1907 46.0387 79.1575 46.0375 80.1191 46.0787C80.2815 46.0852 80.5613 46.361 80.5677 46.5208C80.6102 47.4824 80.609 48.4492 80.5677 49.4108C80.56 49.5758 80.288 49.8646 80.1333 49.8684C79.0222 49.8929 77.9097 49.8594 76.7973 49.8452L76.8128 49.862Z" fill="#EEEEEE"/>
<path d="M76.7961 49.8453C76.7819 50.4215 76.7587 50.9989 76.7587 51.5751C76.7587 51.9593 76.6388 52.1758 76.2057 52.1681C75.2866 52.1513 74.3534 52.2583 73.4498 52.1372C72.4263 52.0005 73.0824 51.1124 72.9341 50.5813C72.8284 50.201 72.9329 49.8775 73.4781 49.8852C74.5893 49.9033 75.7004 49.8711 76.8128 49.8595C76.8128 49.862 76.7961 49.8453 76.7961 49.8453Z" fill="#EEEEEE"/>
<path d="M13.3761 134.31C15.0931 134.31 16.8088 134.297 18.5257 134.317C19.0143 134.324 19.2102 134.181 19.2063 133.661C19.1896 130.271 19.1896 126.881 19.2089 123.492C19.2115 122.957 19.0297 122.788 18.5025 122.791C15.1343 122.809 11.7661 122.809 8.39789 122.794C7.88615 122.791 7.67603 122.932 7.67861 123.483C7.69924 126.873 7.69666 130.264 7.68119 133.652C7.67861 134.162 7.8565 134.325 8.35664 134.319C10.0298 134.297 11.7029 134.311 13.3761 134.31Z" fill="#EEEEEE"/>
<path d="M34.4993 99.7266C34.5161 98.6786 34.5586 97.6294 34.5367 96.5827C34.5264 96.0645 34.7107 95.915 35.2057 95.933C36.0616 95.9652 36.9201 95.9575 37.776 95.9356C38.2053 95.924 38.4038 96.0529 38.3909 96.5156C38.3664 97.4154 38.3806 98.3151 38.3819 99.2149C38.3831 99.5204 38.3458 99.7795 37.9449 99.7717C36.7899 99.7485 35.6362 99.7305 34.48 99.7098C34.48 99.7086 34.4993 99.7266 34.4993 99.7266Z" fill="#EEEEEE"/>
<path d="M118.964 117.036C118.964 117.336 118.964 117.635 118.964 117.935C118.964 118.964 118.964 118.964 117.903 118.964C117.154 118.964 116.404 118.954 115.655 118.966C115.27 118.973 115.119 118.812 115.123 118.43C115.134 117.51 115.135 116.59 115.123 115.668C115.117 115.299 115.235 115.114 115.636 115.121C116.578 115.138 117.52 115.134 118.461 115.125C118.816 115.121 118.969 115.27 118.961 115.623C118.951 116.093 118.959 116.565 118.959 117.036C118.961 117.036 118.963 117.036 118.964 117.036Z" fill="#EEEEEE"/>
<path d="M84.3961 99.7356C85.6916 99.7356 86.9871 99.7356 88.2825 99.7356C88.2774 100.804 88.2529 101.873 88.2748 102.941C88.2851 103.422 88.1652 103.648 87.6316 103.625C86.7782 103.587 85.921 103.592 85.0677 103.626C84.5418 103.646 84.4142 103.421 84.4219 102.94C84.4374 101.872 84.4077 100.803 84.3961 99.7356Z" fill="#EEEEEE"/>
<path d="M19.1999 13.5142C19.2012 15.1667 19.1819 16.8192 19.2115 18.4705C19.2219 19.0299 19.0453 19.2155 18.4781 19.2116C15.1305 19.1884 11.7842 19.1859 8.43661 19.2104C7.83077 19.2142 7.67351 19.0119 7.67737 18.4292C7.70057 15.1254 7.70186 11.8204 7.6735 8.51663C7.66835 7.87212 7.85397 7.66974 8.51008 7.6749C11.8138 7.70455 15.1189 7.70326 18.4227 7.67361C19.062 7.66845 19.2231 7.89145 19.2115 8.49214C19.1767 10.1666 19.1987 11.8397 19.1999 13.5142Z" fill="#EEEEEE"/>
<path d="M134.311 13.4935C134.311 15.146 134.294 16.7986 134.321 18.4498C134.33 18.9899 134.194 19.2142 133.607 19.2103C130.239 19.1884 126.869 19.191 123.5 19.209C122.975 19.2116 122.787 19.0492 122.791 18.5104C122.81 15.1203 122.812 11.7301 122.794 8.33871C122.791 7.82052 122.983 7.67615 123.472 7.67744C126.862 7.69291 130.252 7.69548 133.643 7.68002C134.141 7.67744 134.326 7.82954 134.319 8.34257C134.295 10.0596 134.31 11.7765 134.311 13.4935Z" fill="#EEEEEE"/>
<path d="M13.3761 134.311C11.703 134.311 10.0285 134.298 8.35539 134.32C7.85524 134.327 7.67736 134.163 7.67994 133.654C7.69541 130.264 7.69798 126.873 7.67736 123.485C7.67349 122.933 7.8836 122.792 8.39663 122.795C11.7648 122.809 15.1331 122.81 18.5013 122.792C19.0298 122.79 19.2102 122.959 19.2077 123.494C19.1883 126.884 19.1883 130.274 19.2051 133.663C19.2077 134.183 19.013 134.325 18.5245 134.319C16.8088 134.298 15.0931 134.31 13.3761 134.311Z" fill="#EEEEEE"/>
<g clip-path="url(#clip0)">
<rect x="52.2054" y="52.3344" width="37.6395" height="37.6395" rx="4.64048" fill="#F8D231"/>
<circle cx="71.0251" cy="71.1541" r="18.8197" fill="#F8D231"/>
<path d="M81.0231 72.6244L81.0231 69.6838L61.0271 69.6838L61.0271 72.6244L81.0231 72.6244Z" fill="#1B191C"/>
<path d="M73.3776 63.9496L73.3776 61.0091L68.6727 61.0091L68.6727 63.9496L73.3776 63.9496Z" fill="#1B191C"/>
<path d="M73.3776 81.2991L73.3776 78.3586L68.6727 78.3586L68.6727 81.2991L73.3776 81.2991Z" fill="#1B191C"/>
</g>
<defs>
<clipPath id="clip0">
<rect x="52.2054" y="52.3344" width="37.6395" height="37.6395" rx="4.64048" fill="white"/>
</clipPath>
</defs>
</svg>
